<?xml version="1.0" encoding="UTF-8" standalone="no"?>
<svg
   xmlns:dc="http://purl.org/dc/elements/1.1/"
   xmlns:cc="http://creativecommons.org/ns#"
   xmlns:rdf="http://www.w3.org/1999/02/22-rdf-syntax-ns#"
   xmlns:svg="http://www.w3.org/2000/svg"
   xmlns="http://www.w3.org/2000/svg"
   xmlns:xlink="http://www.w3.org/1999/xlink"
   xmlns:sodipodi="http://sodipodi.sourceforge.net/DTD/sodipodi-0.dtd"
   xmlns:inkscape="http://www.inkscape.org/namespaces/inkscape"
   height="374.35178pt"
   viewBox="0 0 269.9505 374.35178"
   width="269.9505pt"
   version="1.1"
   id="svg2"
   inkscape:version="0.91 r13725"
   sodipodi:docname="LifeTreasureMapCoverWeb.svg">
  <metadata
     id="metadata171">
    <rdf:RDF>
      <cc:Work
         rdf:about="">
        <dc:format>image/svg+xml</dc:format>
        <dc:type
           rdf:resource="http://purl.org/dc/dcmitype/StillImage" />
        <dc:title></dc:title>
      </cc:Work>
    </rdf:RDF>
  </metadata>
  <sodipodi:namedview
     pagecolor="#ffffff"
     bordercolor="#666666"
     borderopacity="1"
     objecttolerance="10"
     gridtolerance="10"
     guidetolerance="10"
     inkscape:pageopacity="0"
     inkscape:pageshadow="2"
     inkscape:window-width="1600"
     inkscape:window-height="837"
     id="namedview169"
     showgrid="false"
     inkscape:zoom="0.36875"
     inkscape:cx="99.739188"
     inkscape:cy="97.266071"
     inkscape:window-x="-8"
     inkscape:window-y="-8"
     inkscape:window-maximized="1"
     inkscape:current-layer="g39"
     fit-margin-top="0"
     fit-margin-left="0"
     fit-margin-right="0"
     fit-margin-bottom="0" />
  <defs
     id="defs4">
    <clipPath
       id="Clip0">
      <path
         d="m 0,0 256.076,0 0,358.552 L 0,358.552 0,0 Z"
         id="path7"
         inkscape:connector-curvature="0" />
    </clipPath>
    <clipPath
       id="Clip1">
      <path
         d="m 0,0 233.66,0 0,242.099 L 0,242.099 0,0 Z"
         id="path10"
         inkscape:connector-curvature="0" />
    </clipPath>
    <path
       id="GlRye-Regular66"
       d="m 2.19734,10.0977 c 0,0 -0.32234,0 -0.5714,-0.15629 0,0 -0.24891,0.15629 -0.46141,0.15629 0,0 -0.212343,0 -0.349061,-0.0368 0,0 -0.136719,-0.0365 -0.239219,-0.09996 0,0 -0.21,-0.12703 -0.21,-0.31735 0,0 0,-0.09765 0.05375,-0.17093 0,0 0.107344,0.08296 0.273438,0.08296 0,0 0.434532,0 0.600472,-0.37109 l 0,-2.38765 c 0,0 0,-0.22469 -0.09266,-0.33204 0,0 -0.14656,-0.18062 -0.502969,-0.3564 0,0 0.332029,-0.15141 0.429689,-0.2686 0,0 0.16594,-0.19046 0.16594,-0.42968 l 0,-2.06063 c 0,0 -0.16594,-0.37594 -0.600472,-0.37594 0,0 -0.166094,0 -0.273438,0.08297 0,0 -0.05375,-0.07312 -0.05375,-0.16828 0,0 0,-0.09531 0.056094,-0.17828 0,0 0.05625,-0.08312 0.153906,-0.14172 0,0 0.224531,-0.13672 0.515,-0.13672 0,0 0.29062,0 0.53469,0.16125 0,0 0.2539,-0.16125 0.5664,-0.16125 0,0 0.3125,0 0.56641,0.16125 0,0 0.27344,-0.16125 0.49797,-0.16125 0,0 0.22469,0 0.36141,0.03672 0,0 0.13671,0.03656 0.23937,0.1 0,0 0.20984,0.12703 0.20984,0.3175 0,0 0,0.09766 -0.05359,0.17078 0,0 -0.1075,-0.08297 -0.28813,-0.08297 0,0 -0.18062,0 -0.36375,0.09532 0,0 -0.18312,0.09515 -0.27109,0.28562 l 0,2.05563 c 0,0 0,0.23922 0.10266,0.3564 0,0 0.16109,0.19047 0.49312,0.34188 0,0 -0.3564,0.17578 -0.45406,0.28797 0,0 -0.14172,0.17578 -0.14172,0.40047 l 0,2.13374 c 0,0 0.32234,0.51266 0.80578,0.51266 0,0 1.19625,0 1.53797,-1.01562 0,0 0.15141,-0.44922 0.15141,-0.82266 0,0 0,-0.37359 -0.1025,-0.50047 0,0 0.11234,-0.09281 0.23187,-0.09281 0,0 0.11969,0 0.22219,0.0489 0,0 0.1025,0.04876 0.18562,0.14641 0,0 0.17079,0.20016 0.17079,0.4736 0,0 0,0.27343 -0.04391,0.42 0,0 0.22469,0.18546 0.22469,0.52249 0,0 0,0.33688 -0.19047,0.54672 0,0 0.16109,0.20516 0.16109,0.37125 0,0 0,0.16594 -0.0464,0.28563 0,0 -0.04641,0.11953 -0.12938,0.21238 0,0 -0.18547,0.1904 -0.44437,0.1904 0,0 -0.12688,0 -0.23438,-0.0537 0,0 0.01953,-0.1074 0.01953,-0.21486 0,0 0,-0.22469 -0.205,-0.22469 0,0 -0.1514,0 -0.42,0.12219 0,0 -0.5175,0.23926 -1.17922,0.23926 0,0 -0.66156,0 -1.03265,-0.17098 0,0 -0.25391,0.17098 -0.5761,0.17098 l 0,0 z M 1.76266,8.70609 c 0,0 0.24421,-0.09281 0.26859,-0.63968 0,0 0.02937,-0.54688 0.02937,-1.5136 0,0 0,-0.96687 -0.0025,-1.28672 0,0 -0.00249,-0.31984 -0.00734,-0.51515 0,0 -0.01469,-0.5761 -0.10984,-0.69578 0,0 -0.09516,-0.11969 -0.17828,-0.15875 0,0 0,1.69922 -0.0586,1.93359 0,0 -0.06828,0.19531 -0.33203,0.27844 0,0 0.29297,0.1025 0.33203,0.2489 0,0 0.0586,0.23438 0.0586,1.71391 l 0,0.63484 z"
       inkscape:connector-curvature="0" />
    <path
       id="GlRye-Regular95"
       d="m 1.83109,3.54 c 0,0 -0.24906,0 -0.48109,-0.13172 0,0 -0.23187,-0.13187 -0.353906,-0.35172 0,0 -0.131875,-0.22453 -0.351563,-0.34172 0,0 -0.068281,-0.03421 -0.15625,-0.07328 l 0.166094,-0.1025 c 0,0 0.234375,-0.14656 0.346565,-0.3564 0,0 0.11234,-0.21 0.33937,-0.32953 0,0 0.22703,-0.11969 0.49078,-0.11969 0,0 0.54688,0 0.79094,0.4589 0,0 0.16609,0.30282 0.51281,0.44922 0,0 -0.07328,0.04391 -0.14406,0.07813 0,0 -0.07078,0.03422 -0.13437,0.07812 0,0 -0.14157,0.09766 -0.25141,0.28813 0,0 -0.10984,0.19047 -0.31734,0.32234 0,0 -0.2075,0.13172 -0.45657,0.13172 l 0,0 z M 1.57219,2.94187 c 0,0 -0.02922,-0.05125 -0.04641,-0.12203 0,0 -0.01703,-0.07078 -0.01703,-0.2514 0,0 0,-0.18078 0.18562,-0.45906 0,0 -0.18062,0 -0.2539,0.06593 0,0 -0.07328,0.06594 -0.11,0.11235 0,0 -0.03656,0.04625 -0.06344,0.09265 0,0 -0.02672,0.04641 -0.06578,0.10016 0,0 -0.09281,0.13187 -0.15141,0.16109 0,0 0.07813,0.04391 0.14407,0.13922 0,0 0.06593,0.09516 0.15375,0.19766 0,0 0.13187,0.16125 0.34671,0.16125 0,0 -0.02937,-0.05375 -0.06109,-0.10016 0,0 -0.03172,-0.0464 -0.06109,-0.09766 l 0,0 z M 1.34281,9.94141 c 0,0 -0.22468,0.15629 -0.51031,0.15629 0,0 -0.285625,0 -0.424844,-0.12692 0,0 -0.139062,-0.12703 -0.139062,-0.24422 0,0 0,-0.16109 0.068281,-0.2539 0,0 0.1075,0.08296 0.317344,0.08296 0,0 0.21,0 0.361401,-0.27343 l 0,-1.55766 c 0,0 0,-0.21484 -0.087807,-0.3125 0,0 -0.141719,-0.14641 -0.507813,-0.32703 0,0 0.341719,-0.15625 0.434531,-0.24906 0,0 0.161089,-0.1611 0.161089,-0.39547 l 0,-0.71297 c 0,0 0,-0.415 -0.28312,-0.44922 0,0 -0.083125,-0.00969 -0.210156,-0.00969 0,0 -0.126875,0 -0.234219,0.08297 0,0 -0.068437,-0.09281 -0.068437,-0.19281 0,0 0,-0.10016 0.051249,-0.22469 0,0 0.051407,-0.12453 0.158751,-0.23687 0,0 0.253906,-0.2636 0.585932,-0.2636 0,0 0.33204,0 0.60063,0.11719 0,0 0.23922,-0.3125 0.54687,-0.3125 0,0 0.50297,0 0.50297,0.52734 l 0,1.67485 c 0,0 0,0.23437 0.1025,0.33687 0,0 0.15141,0.15141 0.49313,0.30766 0,0 -0.36625,0.18062 -0.45891,0.27344 0,0 -0.13672,0.15125 -0.13672,0.36609 l 0,1.57235 c 0,0 0.1611,0.25874 0.3661,0.25874 0,0 0.20515,0 0.3125,-0.08296 0,0 0.06843,0.09281 0.06843,0.23203 0,0 0,0.13906 -0.13921,0.26609 0,0 -0.13907,0.12692 -0.4175,0.12692 0,0 -0.27829,0 -0.5175,-0.15629 0,0 -0.20016,0.15629 -0.48344,0.15629 0,0 -0.28313,0 -0.51266,-0.15629 l 0,0 z M 1.76516,7.62703 c 0,0 0.0025,-0.16609 0.00484,-0.27844 0,0 0.0025,-0.11234 0.0025,-0.18062 l 0,-0.13188 c 0,0 0,-0.07328 -0.0025,-0.19046 0,0 -0.00234,-0.11719 -0.00484,-0.25875 0,0 -0.0025,-0.14157 -0.00735,-0.27829 0,0 -0.01953,-0.33687 -0.04875,-0.4639 0,0 -0.05859,-0.28313 -0.22468,-0.39063 l 0,0.31735 c 0,0 0,0.82531 -0.03672,0.96937 0,0 -0.03657,0.14391 -0.11719,0.21484 0,0 -0.08047,0.07079 -0.23672,0.12438 0,0 0.29297,0.10266 0.33203,0.24906 0,0 0.0586,0.23438 0.0586,1.05953 l 0,0.3175 c 0,0 0.22468,-0.14656 0.2539,-0.60062 0,0 0.02438,-0.3125 0.02688,-0.47844 z"
       inkscape:connector-curvature="0" />
    <path
       id="GlRye-Regular92"
       d="m 1.40625,9.94141 c 0,0 -0.22453,0.15629 -0.510312,0.15629 0,0 -0.285625,0 -0.424844,-0.12692 0,0 -0.139063,-0.12703 -0.139063,-0.24422 0,0 0,-0.16109 0.068438,-0.2539 0,0 0.107343,0.08296 0.273437,0.08296 0,0 0.283125,0 0.405154,-0.32718 l 0,-1.50391 c 0,0 0,-0.21484 -0.092654,-0.3125 0,0 -0.136718,-0.14641 -0.502968,-0.32703 0,0 0.341718,-0.15625 0.434531,-0.24906 0,0 0.161091,-0.1611 0.161091,-0.39547 l 0,-1.3086 -0.786091,0 c 0,0 -0.039063,-0.05859 -0.039063,-0.24656 0,0 0,-0.18812 0.136719,-0.30281 0,0 0.136719,-0.11469 0.346719,-0.11469 l 0.341716,0 0,-0.29797 c 0,0 0,-1.13281 0.58594,-1.88468 0,0 0.625,-0.79594 1.66516,-0.79594 0,0 1.09375,0 1.51359,0.69828 0,0 0.13187,0.21484 0.16594,0.43219 0,0 0.03422,0.21719 0.10984,0.28562 0,0 0.07578,0.06828 0.19781,0.11719 0,0 -0.15125,0.23922 -0.43453,0.23922 0,0 -0.05859,0 -0.13672,-0.01953 0,0 -0.19046,0.28812 -0.4639,0.28812 0,0 -0.50282,0 -0.53219,-0.16125 0,0 0.18063,-0.01953 0.18063,-0.20984 l 0,-0.00984 c 0,0 -0.08297,0.02937 -0.18547,0.02937 0,0 -0.1025,0 -0.17828,-0.02203 0,0 -0.07563,-0.02203 -0.13422,-0.07078 0,0 -0.13672,-0.11235 -0.11719,-0.28813 0,0 0.43453,0 0.58109,-0.15625 0,0 0.0536,-0.05375 0.0536,-0.16359 0,0 0,-0.10984 -0.14657,-0.22203 0,0 -0.1464,-0.11235 -0.38328,-0.11235 0,0 -0.23672,0 -0.37828,0.05125 0,0 -0.14156,0.05125 -0.24422,0.17813 0,0 -0.21484,0.27344 -0.21484,0.89844 0,0 0,0.23937 0.06109,0.65437 0,0 0.0611,0.415 0.07563,0.54203 l 1.46,0 c 0,0 0.03906,0.07813 0.03906,0.26125 0,0 0,0.18297 -0.14156,0.29297 0,0 -0.14157,0.10984 -0.34188,0.10984 l -1.00578,0 0,1.3086 c 0,0 0,0.23437 0.1025,0.33687 0,0 0.15141,0.15141 0.49313,0.30766 0,0 -0.3661,0.18062 -0.45891,0.27344 0,0 -0.13672,0.15125 -0.13672,0.36609 l 0,1.47469 c 0,0 0.14641,0.3564 0.50297,0.3564 0,0 0.21484,0 0.32219,-0.08296 0,0 0.06843,0.09281 0.06843,0.19531 0,0 0,0.1025 -0.04156,0.17328 0,0 -0.04156,0.07078 -0.12453,0.12938 0,0 -0.17094,0.12707 -0.46875,0.12707 0,0 -0.29781,0 -0.58109,-0.16614 0,0 -0.20016,0.16614 -0.48578,0.16614 0,0 -0.28563,0 -0.51516,-0.15629 l 0,0 z M 1.48922,6.83109 c 0,0 0,0.13672 -0.33203,0.24891 0,0 0.29297,0.10266 0.33203,0.24906 0,0 0.05859,0.23438 0.05859,1.05953 l 0,0.3175 c 0,0 0.25391,-0.14656 0.2686,-0.82531 0,0 0.00484,-0.38562 0.00484,-0.68844 l 0,-0.50296 c 0,0 0,-1.68454 0.01953,-1.77235 0,0 0.01953,-0.08797 0.02688,-0.10016 0,0 0.00734,-0.01218 0.01718,-0.09031 0,0 -0.20515,0.09766 -0.27343,0.28813 0,0 -0.12219,0.34172 -0.12219,1.03515 l 0,0.78125 z"
       inkscape:connector-curvature="0" />
    <path
       id="GlRye-Regular91"
       d="m 4.71188,8.52531 c 0,0 0.10749,-0.205 0.39562,-0.205 0,0 0.19531,0 0.30266,0.1611 0,0 0.08796,0.12703 0.08796,0.31015 0,0 0,0.18297 -0.09281,0.3686 0,0 -0.09281,0.18547 -0.2539,0.33687 0,0 -0.1611,0.15141 -0.36875,0.26859 0,0 -0.2075,0.11719 -0.44188,0.19532 0,0 -0.48328,0.16106 -1.00578,0.16106 0,0 -0.5225,0 -0.97906,-0.17325 0,0 -0.45656,-0.17344 -0.7836,-0.48594 0,0 -0.639684,-0.61515 -0.781246,-1.68937 0,0 -0.034219,-0.23922 -0.112344,-0.34188 0,0 -0.146562,-0.18062 -0.483438,-0.34656 0,0 0.424844,-0.19047 0.542032,-0.61047 0,0 0.034219,-0.11719 0.05375,-0.23437 0,0 0.122031,-0.85938 0.869066,-1.46485 0,0 0.72265,-0.58593 1.61625,-0.58593 0,0 0.92765,0 1.6064,0.65437 0,0 0.70313,0.67375 0.70313,1.65531 0,0 0,0.03407 -0.0025,0.06828 0,0 -0.00235,0.03422 0.0025,0.06344 0,0 0.00984,0.06359 0.07812,0.07328 0,0 0.08797,0.11235 0.08797,0.23922 0,0 0,0.29297 -0.3125,0.34672 0,0 -0.07812,0.01469 -0.24422,0.03906 l -2.7539,0.43953 0,0.46875 c 0,0 0,0.56641 0.34187,0.89844 0,0 0.32219,0.31734 0.81531,0.31734 0,0 0.5225,0 0.83985,-0.21484 0,0 0.29797,-0.20515 0.29797,-0.53719 0,0 0,-0.07812 -0.02453,-0.17578 l 0,0 z M 3.8575,6.94828 l 0,-1.36719 c 0,0 0,-0.32234 -0.12703,-0.47375 0,0 -0.22453,-0.25875 -0.44438,-0.25875 0,0 -0.21968,0 -0.36625,0.06594 0,0 -0.1464,0.06594 -0.25375,0.2075 0,0 -0.22468,0.29781 -0.22468,0.92781 l 0,1.12782 1.41609,-0.22938 0,0 z m 0.72266,-0.12219 0,-0.15125 c 0,0 0,-0.90828 -0.15141,-1.09875 0,0 -0.06844,-0.08296 -0.15141,-0.12203 l 0,1.42094 0.30282,-0.04891 0,0 z m -2.93469,1.88 c 0,0 0.06844,-0.05375 0.06844,-0.12218 0,0 0,-0.10735 -0.04391,-0.27344 0,0 -0.20031,-0.76656 -0.20031,-1.06688 0,0 0,-0.30031 0.01953,-0.46875 0,0 0.01953,-0.16843 0.05375,-0.33937 0,0 0.05859,-0.33203 0.12703,-0.58594 0,0 0.04391,-0.16594 0.04391,-0.22453 0,0 0,-0.11719 -0.06844,-0.17094 0,0 -0.205,0.24422 -0.3125,0.65438 0,0 -0.10735,0.41015 -0.17578,0.72265 0,0 -0.02438,0.13172 -0.287971,0.25391 0,0 0.263591,0.12203 0.287971,0.24406 0,0 0.18078,0.82516 0.29797,1.04985 0,0 0.11718,0.22453 0.19031,0.32718 z"
       inkscape:connector-curvature="0" />
    <path
       id="GlRye-Regular34"
       d="m 0.429688,9.19922 c 0,0 0.234374,-0.15141 0.302812,-0.26375 L 0.839844,8.73531 c 0,0 0.180626,-0.33203 0.605466,-0.43453 0,0 0.13188,-0.03422 0.32953,-0.03422 0,0 0.19782,0 0.38579,0.11969 0,0 0.18796,0.11953 0.29062,0.31 0,0 0.20984,0.39062 0.47844,0.50297 0,0 -0.30266,0.12203 -0.415,0.52734 0,0 -0.02938,0.10735 -0.07828,0.32464 0,0 -0.04875,0.2174 -0.19282,0.5469 0,0 -0.1439,0.3297 -0.32953,0.5836 0,0 -0.40031,0.5614 -0.81547,0.5614 0,0 -0.165934,0 -0.26859,-0.0829 0,0 -0.1025,-0.083 -0.1025,-0.2197 0,0 0.26375,-0.0294 0.49313,-0.3736 0,0 0.22953,-0.3442 0.22953,-0.7202 0,0 0,-0.127 -0.03907,-0.2686 0,0 -0.39062,-0.13185 -0.571246,-0.46388 L 0.752031,9.46281 c 0,0 -0.097656,-0.16593 -0.322343,-0.26359 l 0,0 z M 1.46484,9.49953 c 0,0 -0.02922,-0.05125 -0.0464,-0.12203 0,0 -0.01703,-0.07094 -0.01703,-0.26375 0,0 0,-0.19281 0.18547,-0.47125 0,0 -0.10735,0 -0.19047,0.04156 0,0 -0.08297,0.04157 -0.14641,0.12453 0,0 -0.06344,0.08297 -0.09031,0.12938 0,0 -0.02688,0.04641 -0.06594,0.09516 0,0 -0.09281,0.13671 -0.151406,0.16609 0,0 0.078126,0.0439 0.144066,0.13922 0,0 0.06593,0.09515 0.1539,0.2025 0,0 0.13172,0.15625 0.34657,0.15625 0,0 -0.02922,-0.0536 -0.06094,-0.1 0,0 -0.03172,-0.04641 -0.0611,-0.09766 z"
       inkscape:connector-curvature="0" />
    <path
       id="GlRye-Regular106"
       d="m 3.58391,9.28469 c 0,0 0.09281,-0.09531 0.14656,-0.24422 0,0 0.05375,-0.14891 0.05375,-0.3125 0,0 0,-0.16359 -0.01953,-0.30031 0,0 0.03422,-0.07313 0.18547,-0.11469 0,0 0.1514,-0.04156 0.20031,-0.04156 0,0 0.18547,0 0.29781,0.13921 0,0 0.11234,0.13922 0.11234,0.38579 0,0 0,0.24656 -0.14406,0.48578 0,0 -0.14406,0.23922 -0.38328,0.42484 0,0 -0.53234,0.41497 -1.24031,0.41497 0,0 -1.34766,0 -1.78703,-1.02044 0,0 -0.161252,-0.37593 -0.161252,-0.94234 l 0,-0.59578 c 0,0 0,-0.22953 -0.502813,-0.48344 0,0 0.502813,-0.28797 0.502813,-0.77625 l 0,-0.57625 c 0,0 0,-0.55656 -0.454063,-0.55656 0,0 -0.165937,0 -0.273437,0.08297 0,0 -0.0682818,-0.09282 -0.0682818,-0.19282 0,0 0,-0.10015 0.0365625,-0.21968 0,0 0.0365623,-0.11969 0.1293753,-0.21735 0,0 0.234375,-0.2539 0.7275,-0.17578 l 0,-0.15625 c 0,0 0,-0.51281 0.258906,-0.90344 0,0 0.22938,-0.35156 0.40766,-0.35156 0,0 0.17828,0 0.27593,0.12219 0,0 0.08297,-0.38578 0.21969,-0.55672 0,0 0.13672,-0.17094 0.39063,-0.17094 l 0,2.03625 1.58687,0 c 0,0 0.03906,0.07813 0.03906,0.26125 0,0 0,0.18297 -0.14156,0.29297 0,0 -0.14156,0.10984 -0.34187,0.10984 l -1.1425,0 0,3.30563 c 0,0 0,0.84953 0.38578,0.99609 0,0 0.11219,0.03907 0.24156,0.03907 0,0 0.12953,0 0.24906,-0.04641 0,0 0.11969,-0.04641 0.21235,-0.14156 l 0,0 z M 1.31344,8.70609 c 0,0 0.22953,-0.14656 0.2589,-0.61046 0,0 0.01953,-0.33204 0.02188,-0.51751 0,0 0.0025,-0.18562 0.00484,-0.30031 0,0 0.0025,-0.11469 0.0025,-0.17828 l 0,-0.19531 c 0,0 0,-0.14156 -0.0025,-0.36375 0,0 -0.00234,-0.22219 -0.00484,-0.48328 0,0 -0.00235,-0.26125 -0.01219,-0.50063 0,0 -0.01469,-0.57609 -0.04391,-0.70312 0,0 -0.05859,-0.28313 -0.22468,-0.39063 l 0,1.52344 c 0,0 0,0.67875 -0.02203,0.71781 0,0 -0.02188,0.03907 -0.03657,0.09282 0,0 -0.0439,0.1464 -0.332027,0.24406 0,0 0.292967,0.10265 0.332027,0.24906 0,0 0.0586,0.23438 0.0586,1.09859 l 0,0.3175 z"
       inkscape:connector-curvature="0" />
    <path
       id="GlRye-Regular94"
       d="m 1.39656,9.94141 c 0,0 -0.22468,0.15629 -0.51031,0.15629 0,0 -0.285625,0 -0.424844,-0.12692 0,0 -0.139062,-0.12703 -0.139062,-0.24422 0,0 0,-0.16109 0.068281,-0.2539 0,0 0.1075,0.08296 0.273437,0.08296 0,0 0.283282,0 0.405308,-0.32718 l 0,-1.50391 c 0,0 0,-0.24406 -0.092808,-0.33203 0,0 -0.112343,-0.11719 -0.502968,-0.3075 0,0 0.341875,-0.15625 0.434687,-0.24906 0,0 0.161089,-0.1611 0.161089,-0.39547 l 0,-2.76375 c 0,0 0,-0.55656 -0.454057,-0.55656 0,0 -0.166094,0 -0.273438,0.08296 0,0 -0.068437,-0.09281 -0.068437,-0.19281 0,0 0,-0.10015 0.05125,-0.19297 0,0 0.05125,-0.09281 0.153906,-0.17093 0,0 0.234375,-0.16594 0.585936,-0.16594 0,0 0.35156,0 0.54688,0.04391 0,0 0.26843,-0.33688 0.60546,-0.33688 0,0 0.50282,0 0.50282,0.52734 l 0,2.40719 c 0,0 0.47375,-0.88375 1.54797,-0.88375 0,0 1.23046,0 1.56734,1.08891 0,0 0.10734,0.34656 0.10734,0.78609 l 0,0.32719 c 0,0 0,0.22937 0.10266,0.33203 0,0 0.15125,0.15125 0.49312,0.3075 0,0 -0.37109,0.18078 -0.45906,0.27844 0,0 -0.13672,0.15125 -0.13672,0.36609 l 0,1.52844 c 0,0 0.09282,0.30265 0.40532,0.30265 0,0 0.16609,0 0.27343,-0.08296 0,0 0.05375,0.07328 0.05375,0.21484 0,0 0,0.14156 -0.12937,0.27594 0,0 -0.12938,0.13426 -0.41266,0.13426 0,0 -0.28312,0 -0.5225,-0.15629 0,0 -0.21969,0.15629 -0.49562,0.15629 0,0 -0.27578,0 -0.48094,-0.14661 0,0 -0.19031,0.14661 -0.42719,0.14661 0,0 -0.23687,0 -0.37844,-0.12207 0,0 -0.14156,-0.12219 -0.14156,-0.35157 0,0 0,-0.1075 0.07328,-0.17094 0,0 0.11219,0.08782 0.22454,0.08782 0,0 0.21484,0 0.30765,-0.23922 l 0,-2.91016 c 0,0 0,-0.95218 -0.46391,-1.09859 0,0 -0.1464,-0.04891 -0.31734,-0.04891 0,0 -0.50781,0 -0.70797,0.53719 0,0 -0.06359,0.16594 -0.08312,0.36125 l 0,3.15922 c 0,0 0.09281,0.23922 0.30765,0.23922 0,0 0.11235,0 0.22469,-0.08782 0,0 0.07313,0.06344 0.07313,0.23188 0,0 0,0.16844 -0.14157,0.29063 0,0 -0.14156,0.12207 -0.38093,0.12207 0,0 -0.23922,0 -0.42954,-0.14661 0,0 -0.20031,0.14661 -0.47374,0.14661 0,0 -0.27344,0 -0.50282,-0.15629 l 0,0 z M 1.52828,8.70109 c 0,0 0.21984,-0.14156 0.25891,-0.62 0,0 0.01453,-0.21 0.01937,-0.46875 0,0 0.005,-0.2589 0.00735,-0.36875 0,0 0.0025,-0.10984 0.0025,-0.16359 l 0,-0.43938 c 0,0 0,-0.18062 0,-0.41015 L 1.80672,5.75188 c 0,0 -0.00984,-1.29391 -0.04406,-1.44032 0,0 -0.06829,-0.30765 -0.23438,-0.41515 l 0,1.64562 c 0,0 0,1.01063 -0.02203,1.12547 0,0 -0.02187,0.11469 -0.03656,0.16844 0,0 -0.04391,0.1514 -0.33203,0.24906 0,0 0.29297,0.1025 0.33203,0.24406 0,0 0.05859,0.23438 0.05859,1.05469 l 0,0.31734 0,0 z m 3.22766,0.005 c 0,0 0.24406,-0.09281 0.27343,-0.63968 0,0 0.02438,-0.54688 0.02438,-1.00344 0,0 0,-0.45656 -0.02937,-0.74453 0,0 -0.02922,-0.28813 -0.09516,-0.45657 0,0 -0.06594,-0.16859 -0.16844,-0.2539 0,0 -0.1025,-0.08547 -0.24906,-0.15875 0,0 0.18562,0.43937 0.21484,0.80078 0,0 0.02938,0.36125 0.02938,0.69828 l 0,1.75781 z"
       inkscape:connector-curvature="0" />
    <path
       id="GlRye-Regular22"
       d=""
       inkscape:connector-curvature="0" />
    <path
       id="GlRye-Regular74"
       d="m 4.25297,9.93656 c 0,0 -0.25391,0.16114 -0.56406,0.16114 0,0 -0.31,0 -0.5736,-0.16114 0,0 -0.26859,0.16114 -0.49328,0.16114 0,0 -0.22453,0 -0.36125,-0.0368 0,0 -0.13672,-0.0365 -0.23922,-0.09996 0,0 -0.21,-0.12703 -0.21,-0.31735 0,0 0,-0.09765 0.05375,-0.17093 0,0 0.10735,0.08296 0.28547,0.08296 0,0 0.17828,0 0.36141,-0.09265 0,0 0.18312,-0.09281 0.27593,-0.28813 l 0,-2.37796 c 0,0 0,-0.22469 -0.09281,-0.33204 0,0 -0.1464,-0.18062 -0.50297,-0.3564 0,0 0.33204,-0.15141 0.42969,-0.2686 0,0 0.16609,-0.19046 0.16609,-0.42968 l 0,-2.26563 c 0,0 -0.16109,-0.05859 -0.38328,-0.05859 0,0 -0.22218,0 -0.4664,0.11718 0,0 -0.24407,0.11719 -0.43938,0.34172 0,0 -0.43453,0.50782 -0.43453,1.32813 0,0 0,0.47375 0.15625,0.69828 0,0 -0.05859,0.12203 -0.21984,0.12203 0,0 -0.161096,0 -0.288128,-0.07312 0,0 -0.126874,-0.07328 -0.219687,-0.20032 0,0 -0.190313,-0.2539 -0.190313,-0.54687 0,0 0,-0.29297 0.107344,-0.49797 0,0 -0.180625,-0.21484 -0.180625,-0.48578 0,0 0,-0.27109 0.146407,-0.44688 0,0 -0.205001,-0.21968 -0.205001,-0.59078 0,0 0,-0.42968 0.395469,-0.57625 0,0 0.117188,-0.0439 0.205157,-0.0439 0,0 0.165937,0 0.248907,0.07328 0,0 -0.034064,0.11719 -0.034064,0.16594 0,0 0,0.19531 0.136714,0.19531 0,0 0.07313,0 0.15126,-0.01953 L 1.49422,2.58297 c 0,0 0.57125,-0.15141 0.95203,-0.15141 0,0 0.38094,0 0.66906,0.1661 0,0 0.24891,-0.1661 0.56625,-0.1661 0,0 0.3175,0 0.57625,0.1661 0,0 0.27828,-0.1661 0.57625,-0.1661 0,0 0.4736,0 0.83,0.09766 l 0.43453,0.11719 c 0,0 0.07813,0.01953 0.15141,0.01953 0,0 0.13672,0 0.13672,-0.19531 0,0 0,-0.04875 -0.03422,-0.16594 0,0 0.08312,-0.07328 0.21,-0.07328 0,0 0.12703,0 0.24422,0.04406 0,0 0.11719,0.0439 0.205,0.12687 0,0 0.19047,0.17094 0.19047,0.49078 0,0 0,0.31969 -0.20516,0.54922 0,0 0.14656,0.17579 0.14656,0.44438 0,0 0,0.26859 -0.18562,0.48828 0,0 0.11234,0.20016 0.11234,0.40047 0,0 0,0.20015 -0.0489,0.36125 0,0 -0.04875,0.16109 -0.14157,0.28312 0,0 -0.20015,0.27344 -0.50281,0.27344 0,0 -0.16609,0 -0.22469,-0.12203 0,0 0.15625,-0.22453 0.15625,-0.67625 0,0 0,-0.45172 -0.11968,-0.78609 0,0 -0.11954,-0.33453 -0.31485,-0.56407 0,0 -0.39547,-0.4589 -0.93265,-0.4589 0,0 -0.205,0 -0.35641,0.05859 l 0,2.26563 c 0,0 0,0.23922 0.1025,0.3564 0,0 0.16109,0.19047 0.49313,0.34188 0,0 -0.35641,0.17578 -0.45407,0.28797 0,0 -0.14156,0.17578 -0.14156,0.40047 l 0,2.37796 c 0,0 0.08781,0.19532 0.27094,0.28813 0,0 0.18312,0.09265 0.36375,0.09265 0,0 0.18078,0 0.28812,-0.08296 0,0 0.05375,0.07328 0.05375,0.16843 0,0 0,0.09516 -0.05625,0.17829 0,0 -0.05609,0.08296 -0.15375,0.14156 0,0 -0.22453,0.13676 -0.52484,0.13676 0,0 -0.30031,0 -0.57375,-0.16114 l 0,0 z M 3.25687,8.70609 c 0,0 0.24407,-0.09281 0.2686,-0.63968 0,0 0.02922,-0.54688 0.02922,-1.5136 0,0 0,-0.96687 -0.0025,-1.28672 0,0 -0.00235,-0.31984 -0.00719,-0.51515 0,0 -0.01469,-0.5761 -0.11,-0.69578 0,0 -0.09516,-0.11969 -0.17813,-0.15875 0,0 0,1.69922 -0.05859,1.93359 0,0 -0.06844,0.19531 -0.33203,0.27844 0,0 0.29297,0.1025 0.33203,0.2489 0,0 0.05859,0.23438 0.05859,1.71391 l 0,0.63484 z"
       inkscape:connector-curvature="0" />
    <path
       id="GlRye-Regular104"
       d="m 1.34281,9.94141 c 0,0 -0.22468,0.15629 -0.51281,0.15629 0,0 -0.287969,0 -0.417344,-0.13426 0,0 -0.129375,-0.13438 -0.129375,-0.25641 0,0 0,-0.16109 0.053594,-0.23437 0,0 0.1075,0.08296 0.273438,0.08296 0,0 0.3125,0 0.405307,-0.30265 l 0,-1.47953 c 0,0 0,-0.22469 -0.087807,-0.33203 0,0 -0.15625,-0.19047 -0.507813,-0.36141 0,0 0.59562,-0.27344 0.59562,-0.83984 l 0,-0.51266 c 0,0 0,-0.415 -0.28312,-0.44922 0,0 -0.083125,-0.00969 -0.210156,-0.00969 0,0 -0.126875,0 -0.234219,0.08297 0,0 -0.068437,-0.09281 -0.068437,-0.19281 0,0 0,-0.10016 0.051249,-0.22469 0,0 0.051407,-0.12453 0.158751,-0.23687 0,0 0.253906,-0.2636 0.593282,-0.2636 0,0 0.33937,0 0.56391,0.10735 0,0 0.26859,-0.30266 0.57624,-0.30266 0,0 0.47844,0 0.47844,0.52734 l 0,0.66891 c 0,0 0.48828,-1.20109 1.55281,-1.20109 0,0 0.47844,0 0.77641,0.29297 0,0 0.3075,0.29781 0.3075,0.82515 l 0,0.06828 c 0,0 0,0.03422 -0.00984,0.13922 0,0 -0.00969,0.105 0.00734,0.2125 0,0 0.01719,0.10735 0.05625,0.17563 0,0 0.05375,0.10265 0.20016,0.16125 0,0 -0.03407,0.13172 -0.1586,0.23672 0,0 -0.12453,0.105 -0.27593,0.105 l -0.09282,0 c 0,0 -0.19031,0.23922 -0.53218,0.33687 0,0 -0.09766,0.02938 -0.2125,0.02938 0,0 -0.11469,0 -0.20016,-0.05125 0,0 -0.08531,-0.05125 -0.09516,-0.10985 0,0 0.09282,-0.04406 0.09282,-0.17578 l 0,-0.02453 c 0,0 -0.03907,0.00984 -0.06844,0.00984 l -0.04875,0 c 0,0 -0.1611,0 -0.29063,-0.12203 0,0 -0.12937,-0.12218 -0.16843,-0.30765 0,0 0.26375,0.00968 0.45906,-0.19532 0,0 0.17578,-0.18062 0.17578,-0.37109 0,0 0,-0.44922 -0.39063,-0.44922 0,0 -0.33687,0 -0.67874,0.53703 0,0 -0.32219,0.49328 -0.40532,1.02063 l 0,2.64156 c 0,0 0.05375,0.17094 0.1661,0.25391 0,0 0.11234,0.08296 0.30765,0.08296 0,0 0.19531,0 0.30266,-0.08296 0,0 0.05375,0.07328 0.05375,0.21484 0,0 0,0.14156 -0.12938,0.27594 0,0 -0.12937,0.13426 -0.43468,0.13426 0,0 -0.30516,0 -0.58344,-0.16614 0,0 -0.19531,0.16614 -0.4736,0.16614 0,0 -0.27828,0 -0.50781,-0.15629 l 0,0 z M 1.76516,7.62453 c 0,0 0.0025,-0.16359 0.00484,-0.27594 0,0 0.0025,-0.11234 0.0025,-0.18062 l 0,-0.13188 c 0,0 0,-0.07328 -0.0025,-0.18797 0,0 -0.00234,-0.11468 -0.00484,-0.25874 0,0 -0.0025,-0.14407 -0.00735,-0.28079 0,0 -0.02922,-0.50781 -0.10984,-0.65187 0,0 -0.08063,-0.14406 -0.16359,-0.19781 l 0,0.3175 c 0,0 0,0.82031 -0.03672,0.96437 0,0 -0.03657,0.14391 -0.11719,0.21484 0,0 -0.08047,0.07079 -0.23672,0.12438 0,0 0.29297,0.10266 0.33203,0.24906 0,0 0.0586,0.23438 0.0586,1.05469 l 0,0.31734 c 0,0 0.22468,-0.1464 0.2539,-0.59562 0,0 0.02438,-0.31735 0.02688,-0.48094 z"
       inkscape:connector-curvature="0" />
    <path
       id="GlRye-Regular87"
       d="m 3.84766,9.53609 c 0,0 -0.44438,0.58591 -1.33297,0.58591 0,0 -1.08406,0 -1.62594,-0.64934 0,0 -0.234375,-0.27828 -0.322344,-0.62016 0,0 -0.04875,-0.205 -0.170937,-0.31484 0,0 -0.122031,-0.11 -0.3026565,-0.19782 0,0 0.3515625,-0.16109 0.5029685,-0.60546 0,0 0.161094,-0.46876 0.537029,-0.67875 0,0 0.40531,-0.21969 0.8936,-0.23188 0,0 0.48828,-0.01219 0.72265,-0.03172 0,0 0.23438,-0.01953 0.415,-0.06359 0,0 0.33688,-0.07813 0.52735,-0.28797 l 0,-0.7325 c 0,0 0,-0.48344 -0.19782,-0.70797 0,0 -0.19765,-0.22469 -0.60047,-0.22469 0,0 -0.40281,0 -0.59578,0.14906 0,0 -0.19281,0.14891 -0.19281,0.39782 0,0 0,0.38093 0.39063,0.37109 0,0 -0.07813,0.38094 -0.41016,0.38094 0,0 -0.09766,0 -0.19047,-0.03422 l 0,0.01469 c 0,0 0,0.12687 0.11719,0.16109 0,0 -0.12203,0.18563 -0.41016,0.18078 0,0 -0.28812,-0.005 -0.44922,-0.30765 0,0 -0.07328,0.01953 -0.168434,0.01953 0,0 -0.095156,0 -0.21,-0.06344 0,0 -0.114687,-0.06359 -0.183125,-0.17594 0,0 0.244219,-0.1464 0.297969,-0.45406 0,0 0.058594,-0.37594 0.60047,-0.76172 0,0 0.65437,-0.4639 1.67,-0.4639 0,0 1.68453,0 2.05562,1.03515 0,0 0.12204,0.34672 0.12204,0.82031 l 0,0.39563 c 0,0 0,0.23922 0.11968,0.39062 0,0 0.11969,0.15125 0.40766,0.24891 0,0 -0.3075,0.14172 -0.39547,0.25391 0,0 -0.13187,0.17093 -0.13187,0.39062 l 0,1.46485 c 0,0 0.14171,0.36624 0.40531,0.36624 0,0 0.16609,0 0.27343,-0.08296 0,0 0.06844,0.09281 0.06844,0.23203 0,0 0,0.13906 -0.13922,0.26609 0,0 -0.13921,0.12692 -0.4175,0.12692 0,0 -0.27828,0 -0.5175,-0.15629 0,0 -0.21,0.15629 -0.37359,0.15629 0,0 -0.16359,0 -0.28328,-0.0318 0,0 -0.11953,-0.0317 -0.22203,-0.10012 0,0 -0.22953,-0.1514 -0.28328,-0.42969 l 0,0 z m 0.30765,-0.83 c 0,0 0.28313,-0.11234 0.29781,-1.07921 0,0 0,-0.205 0,-0.4686 0,0 0,-0.26375 -0.00249,-0.45172 0,0 -0.00235,-0.18797 -0.00719,-0.3589 0,0 -0.01953,-0.61532 -0.11235,-0.73485 0,0 -0.09281,-0.11968 -0.17578,-0.15875 l 0,3.25203 0,0 z M 2.35359,8.35938 c 0,0 0,0.205 0.04391,0.40031 0,0 0.04391,0.19531 0.13187,0.34187 0,0 0.19532,0.30766 0.55172,0.30766 0,0 0.2686,0 0.44438,-0.21984 0,0 0.16594,-0.21485 0.16594,-0.55172 l 0,-1.59172 c 0,0 -0.3125,0.18062 -0.80079,0.2489 0,0 -0.53703,0.08313 -0.53703,1.06454 l 0,0 z m -0.7325,1.09859 c 0,0 0.04891,-0.03422 0.04891,-0.08781 0,0 0,-0.07328 -0.06844,-0.20516 0,0 -0.24406,-0.44922 -0.24406,-0.73719 0,0 0,-0.28812 0.02188,-0.415 0,0 0.02203,-0.12703 0.05859,-0.21734 0,0 0.03672,-0.09047 0.08297,-0.15875 0,0 0.0464,-0.06844 0.08062,-0.12203 0,0 0.06344,-0.11235 0.06344,-0.15375 0,0 0,-0.04157 -0.04391,-0.07094 0,0 -0.20015,0.09281 -0.29297,0.21969 0,0 -0.16593,0.22469 -0.24406,0.58109 0,0 -0.01953,0.1025 -0.341872,0.24906 0,0 0.312502,0.14157 0.341872,0.24907 0,0 0.16594,0.58093 0.53703,0.86906 z"
       inkscape:connector-curvature="0" />
    <path
       id="GlRye-Regular105"
       d="m 1.42578,9.88281 c 0,0 -0.33203,0.31739 -0.639686,0.31739 0,0 -0.170781,0 -0.234375,-0.1269 0,0 0.112343,-0.11236 0.112343,-0.22471 0,0 0,-0.11234 -0.034218,-0.17093 L 0.566406,9.56547 0.644531,9.71187 c 0,0 -0.117187,-0.05374 -0.180625,-0.18062 0,0 -0.063437,-0.12703 -0.063437,-0.31 0,0 0,-0.18312 0.205,-0.4175 0,0 -0.097657,-0.13672 -0.097657,-0.30266 0,0 0,-0.16609 0.056094,-0.27593 0,0 0.05625,-0.11 0.144063,-0.19782 0,0 0.195312,-0.18562 0.415151,-0.18562 0,0 0.14641,0 0.20985,0.10265 0,0 -0.13172,0.14157 -0.13172,0.44672 0,0 0,0.30516 0.10484,0.52 0,0 0.105,0.21485 0.28578,0.36625 0,0 0.38079,0.32219 0.9375,0.32219 0,0 0.62001,0 0.85938,-0.45406 0,0 0.06828,-0.13672 0.06828,-0.27578 0,0 0,-0.13922 -0.06344,-0.24906 0,0 -0.06343,-0.10985 -0.16609,-0.2125 0,0 -0.17078,-0.16594 -0.52234,-0.38079 0,0 -0.33703,-0.23922 -0.79594,-0.23922 0,0 -0.29781,0 -0.40047,0.04876 0,0 0.06359,-0.14641 0.06359,-0.29282 0,0 0,-0.14656 -0.19531,-0.31984 0,0 -0.19531,-0.17344 -0.34922,-0.34922 0,0 -0.153748,-0.17578 -0.24656,-0.35156 0,0 -0.185469,-0.33203 -0.185469,-0.70313 0,0 0,-0.37109 0.15375,-0.65672 0,0 0.15375,-0.28562 0.432189,-0.49078 0,0 0.58094,-0.43453 1.48922,-0.43453 0,0 0.43937,0 0.60297,0.03906 0,0 0.16359,0.03907 0.26125,0.07328 0,0 0.13187,0.04876 0.32218,0.04876 0,0 0.19047,0 0.2661,-0.08297 0,0 0.07578,-0.08297 0.07578,-0.15375 0,0 0,-0.07094 -0.01469,-0.11 0,0 0.02938,-0.00969 0.08797,-0.00969 0,0 0.05859,0 0.13422,0.03422 0,0 0.07578,0.03406 0.13437,0.09265 0,0 0.11719,0.13188 0.11719,0.28078 0,0 0,0.14891 -0.05859,0.22704 0,0 0.13672,0.12703 0.13672,0.3614 0,0 0,0.23438 -0.19532,0.39547 0,0 0.04391,0.08797 0.04391,0.215 0,0 0,0.12688 -0.13672,0.24406 0,0 -0.13672,0.11719 -0.25875,0.11719 0,0 -0.21,0 -0.28328,-0.05375 0,0 0.06344,-0.15625 0.06344,-0.33937 0,0 0,-0.18313 -0.09766,-0.34907 0,0 -0.09765,-0.16609 -0.24891,-0.26859 0,0 -0.28328,-0.19531 -0.6739,-0.19531 0,0 -0.49313,0 -0.66406,0.3125 0,0 -0.05375,0.09765 -0.05375,0.2125 0,0 0,0.11468 0.03172,0.20984 0,0 0.03187,0.09516 0.105,0.19281 0,0 0.14171,0.19047 0.40046,0.36141 0,0 0.33688,0.21969 0.46875,0.21969 0,0 0.28313,0 0.49313,-0.13672 0,0 -0.05859,0.23437 -0.05859,0.32719 0,0 0,0.14156 0.22468,0.32718 0,0 0.62985,0.43453 0.85938,0.79579 0,0 0.21968,0.35156 0.21968,0.78125 0,0 0,0.42968 -0.19046,0.73499 0,0 -0.19047,0.30516 -0.5175,0.52485 0,0 -0.67875,0.45403 -1.64563,0.45403 0,0 -0.65906,0 -1.19625,-0.23919 l 0,0 z M 1.25484,5.41016 c 0,0 -0.14156,0.06828 -0.14156,0.37843 0,0 0,0.31 0.20016,0.59078 0,0 0.20031,0.28079 0.63484,0.63235 0,0 0.1025,0.07812 0.1025,0.1514 0,0 0,0.11219 -0.01953,0.18063 0,0 0.05859,-0.01469 0.20516,-0.02937 0,0 0.3564,-0.03407 0.88375,0.33203 0,0 0.83984,0.51765 0.83984,1.0889 0,0 0,0.21485 -0.05859,0.32235 0,0 0.17578,-0.03422 0.26859,-0.29797 0,0 0.02437,-0.07813 0.02437,-0.1611 0,0 0,-0.39547 -0.42734,-0.80312 0,0 -0.42719,-0.40781 -1.22797,-0.7886 0,0 -1.32812,-0.6739 -1.28422,-1.59671 z"
       inkscape:connector-curvature="0" />
    <path
       id="GlRye-Regular107"
       d="m 5.01953,10.0977 c 0,0 -0.68844,0 -0.74219,-0.95223 0,0 -0.24906,0.44922 -0.6714,0.71297 0,0 -0.42235,0.26356 -0.90828,0.26356 0,0 -0.48578,0 -0.7886,-0.13169 0,0 -0.30265,-0.13187 -0.50281,-0.38093 0,0 -0.39063,-0.48829 -0.39063,-1.38672 l 0,-0.30282 c 0,0 0,-0.5664 -0.59562,-0.83984 0,0 0.351563,-0.17078 0.449219,-0.28797 0,0 0.146401,-0.18078 0.146401,-0.40531 l 0,-0.65922 c 0,0 0,-0.415 -0.28312,-0.44922 0,0 -0.083125,-0.00969 -0.210156,-0.00969 0,0 -0.126875,0 -0.234219,0.08297 0,0 -0.068437,-0.09281 -0.068437,-0.19281 0,0 0,-0.10016 0.051249,-0.22469 0,0 0.051407,-0.12453 0.158751,-0.23687 0,0 0.253906,-0.2636 0.590782,-0.2636 0,0 0.33703,0 0.63484,0.11235 0,0 0.21485,-0.30766 0.50781,-0.30766 0,0 0.50297,0 0.50297,0.52734 l 0,3.17875 c 0,0 0,0.92766 0.42969,1.11329 0,0 0.13672,0.05859 0.30516,0.05859 0,0 0.16843,0 0.30515,-0.07078 0,0 0.13672,-0.07094 0.23922,-0.19297 0,0 0.19047,-0.23922 0.24422,-0.65422 l 0,-2.47078 c 0,0 0,-0.55656 -0.45422,-0.55656 0,0 -0.16594,0 -0.27343,0.08297 0,0 -0.06829,-0.09282 -0.06829,-0.19282 0,0 0,-0.10015 0.05125,-0.21 0,0 0.05125,-0.10984 0.15875,-0.20265 0,0 0.23922,-0.21485 0.58344,-0.21485 0,0 0.34422,0 0.64203,0.11235 0,0 0.21485,-0.30766 0.50782,-0.30766 0,0 0.50296,0 0.50296,0.52734 l 0,1.6211 c 0,0 0,0.22453 0.08797,0.33203 0,0 0.15625,0.19047 0.50781,0.36125 0,0 -0.59578,0.27344 -0.59578,0.83984 l 0,1.25985 c 0,0 0.09282,0.37593 0.40532,0.37593 0,0 0.16593,0 0.27343,-0.08296 0,0 0.06829,0.09281 0.06829,0.23203 0,0 0,0.13906 -0.13922,0.26609 0,0 -0.13907,0.12692 -0.43453,0.12692 0,0 -0.29532,0 -0.55907,-0.15629 0,0 -0.19531,0.15629 -0.43453,0.15629 l 0,0 z M 4.65328,8.70609 c 0,0 0.28328,-0.11234 0.29797,-1.07921 0,0 0,-0.205 0,-0.4686 0,0 0,-0.26375 -0.0025,-0.45172 0,0 -0.0025,-0.18797 -0.00734,-0.3589 0,0 -0.01953,-0.61532 -0.11235,-0.73485 0,0 -0.09265,-0.11968 -0.17578,-0.15875 l 0,3.25203 0,0 z M 1.73344,7.08 1.74812,6.43547 c 0,0 0,-0.43453 -0.02937,-0.57609 0,0 -0.08297,-0.3711 -0.23437,-0.40532 l 0,0.31735 c 0,0 0,0.82531 -0.03672,0.96937 0,0 -0.03657,0.14391 -0.11719,0.21484 0,0 -0.08047,0.07079 -0.23672,0.12438 0,0 0.29297,0.10266 0.33203,0.24906 0,0 0.0586,0.23438 0.0586,1.05953 l 0,0.3175 c 0,0 0.14656,-0.03421 0.23921,-0.43468 0,0 0.02453,-0.11219 0.02453,-0.54688 L 1.73344,7.08 Z"
       inkscape:connector-curvature="0" />
    <path
       id="GlRye-Regular67"
       d="m 1.24516,9.96578 c 0,0 -0.18063,0.13192 -0.41266,0.13192 0,0 -0.231875,0 -0.371094,-0.11957 0,0 -0.139062,-0.11969 -0.139062,-0.27594 0,0 0,-0.15625 0.04875,-0.22953 0,0 0.141562,0.08296 0.449218,0.08296 0,0 0.122032,0 0.268438,-0.12453 0,0 0.14656,-0.12453 0.23453,-0.34422 l 0,-2.28999 c 0,0 0,-0.22954 -0.09766,-0.34188 0,0 -0.14656,-0.17578 -0.49812,-0.34656 0,0 0.35656,-0.17094 0.44922,-0.28328 0,0 0.14656,-0.18547 0.14656,-0.415 L 1.32812,3.28125 c 0,0 -0.11718,-0.30766 -0.517495,-0.30766 0,0 -0.205156,0 -0.302813,0.08297 0,0 -0.04875,-0.06343 -0.04875,-0.16594 0,0 0,-0.1025 0.043907,-0.18546 0,0 0.043906,-0.08313 0.122031,-0.14657 0,0 0.166094,-0.12703 0.44437,-0.12703 0,0 0.27829,0 0.45891,0.16125 0,0 0.16125,-0.16125 0.37609,-0.16125 0,0 0.21485,0 0.3661,0.18078 0,0 0.19047,-0.18078 0.33687,-0.18078 0,0 0.14657,0 0.22469,0.02453 0,0 0.07813,0.02438 0.15625,0.09266 0,0 0.15625,0.12219 0.32719,0.49328 L 5.18562,6.92375 6.72859,3.12016 6.86531,2.80266 c 0,0 0.12203,-0.26844 0.22938,-0.31969 0,0 0.1075,-0.05141 0.25156,-0.05141 0,0 0.14406,0 0.29531,0.1075 0,0 0.18563,-0.1075 0.48594,-0.1075 0,0 0.30031,0 0.52,0.16125 0,0 0.19531,-0.16125 0.40766,-0.16125 0,0 0.2125,0 0.33203,0.03422 0,0 0.11969,0.03422 0.2075,0.09281 0,0 0.18562,0.13188 0.18562,0.32719 0,0 0,0.09766 -0.05375,0.17078 0,0 -0.10734,-0.08297 -0.27344,-0.08297 0,0 -0.37109,0 -0.50296,0.34672 l 0,2.08985 c 0,0 0,0.23922 0.10265,0.3564 0,0 0.1611,0.19047 0.49313,0.34188 0,0 -0.35641,0.17578 -0.45407,0.28797 0,0 -0.14171,0.17578 -0.14171,0.40047 l 0,2.38765 c 0,0 0.16609,0.37109 0.60062,0.37109 0,0 0.16609,0 0.27344,-0.08296 0,0 0.05375,0.07328 0.05375,0.16843 0,0 0,0.09516 -0.05625,0.17829 0,0 -0.0561,0.08296 -0.15375,0.14156 0,0 -0.22453,0.13676 -0.51266,0.13676 0,0 -0.28812,0 -0.53718,-0.15629 0,0 -0.22938,0.15629 -0.52235,0.15629 0,0 -0.3125,0 -0.55187,-0.15629 0,0 -0.24891,0.15629 -0.46141,0.15629 0,0 -0.21234,0 -0.34906,-0.0368 0,0 -0.13672,-0.0365 -0.23922,-0.09996 0,0 -0.21,-0.12703 -0.21,-0.31735 0,0 0,-0.09765 0.05375,-0.17093 0,0 0.10734,0.08296 0.27344,0.08296 0,0 0.43453,0 0.60047,-0.37109 l 0,-5.33687 -1.90422,4.71672 -0.21,0.47859 c 0,0 -0.15141,0.34172 -0.2125,0.38578 0,0 -0.06094,0.04391 -0.1,0.04391 0,0 -0.12204,0 -0.17094,-0.02438 l -2.60735,-5.14172 0,4.77547 c 0,0 0.09282,0.22453 0.25391,0.34906 0,0 0.1611,0.12453 0.36125,0.12453 0,0 0.20031,0 0.34188,-0.08296 0,0 0.05375,0.08781 0.05375,0.24172 0,0 0,0.15374 -0.15141,0.26859 0,0 -0.15141,0.11473 -0.39063,0.11473 0,0 -0.23921,0 -0.43953,-0.12207 0,0 -0.17578,0.12207 -0.40281,0.12207 0,0 -0.22703,0 -0.38812,-0.13192 l 0,0 z M 2.69531,3.89156 c 0,0 -0.04875,0.07328 -0.04875,0.21 0,0 0,0.39547 0.33203,1.04985 l 1.77735,3.54968 c 0,0 0.03406,-0.0439 0.03406,-0.18547 0,0 0,-0.42484 -0.40516,-1.24515 l -1.68953,-3.37891 0,0 z m 4.98532,4.81453 c 0,0 0.24421,-0.09281 0.26859,-0.63968 0,0 0.02937,-0.54688 0.02937,-1.5136 0,0 0,-0.96687 -0.0025,-1.28672 0,0 -0.0025,-0.31984 -0.00734,-0.51515 0,0 -0.01469,-0.5761 -0.10984,-0.69578 0,0 -0.09516,-0.11969 -0.17828,-0.15875 l 0,4.80968 0,0 z M 1.93844,8.76953 c 0,0 0,0.03906 0.005,0.05859 l -0.005,-0.05859 0,0 z m -0.54688,0 c 0,0 -0.00484,0.01953 -0.00484,0.05859 L 1.39156,8.76953 Z"
       inkscape:connector-curvature="0" />
    <path
       id="GlRye-Regular102"
       d="m 1.34766,12.3291 c 0,0 -0.21969,0.1612 -0.507816,0.1612 0,0 -0.288125,0 -0.427344,-0.127 0,0 -0.139062,-0.1269 -0.139062,-0.2441 0,0 0,-0.1612 0.068437,-0.2539 0,0 0.107344,0.083 0.273438,0.083 0,0 0.283125,0 0.405157,-0.3272 l 0,-3.84766 c 0,0 0,-0.22469 -0.092657,-0.33203 0,0 -0.146563,-0.18063 -0.502969,-0.35641 0,0 0.595626,-0.27344 0.595626,-0.84484 l 0,-0.51266 c 0,0 0,-0.415 -0.283126,-0.44922 0,0 -0.082969,-0.00969 -0.21,-0.00969 0,0 -0.126875,0 -0.234375,0.08297 0,0 -0.068281,-0.09281 -0.068281,-0.19281 0,0 0,-0.10016 0.05125,-0.22469 0,0 0.05125,-0.12453 0.15375,-0.23687 0,0 0.25875,-0.2636 0.598122,-0.2636 0,0 0.33938,0 0.56406,0.10735 0,0 0.26844,-0.30266 0.5761,-0.30266 0,0 0.50297,0 0.50297,0.52734 l 0,0.03422 c 0,0 0.38578,-0.38578 1.00578,-0.5225 0,0 0.19047,-0.03906 0.49078,-0.03906 0,0 0.30031,0 0.63234,0.08797 0,0 0.33203,0.08781 0.5761,0.31234 0,0 0.48828,0.44922 0.60062,1.60157 0,0 0.04891,0.59578 0.59578,0.84484 0,0 -0.34672,0.17078 -0.43953,0.28797 0,0 -0.12203,0.16609 -0.15625,0.40047 0,0 -0.14156,1.17672 -0.60547,1.73828 0,0 -0.50781,0.61028 -1.46968,0.61028 0,0 -0.74219,0 -1.23047,-0.39059 l 0,1.87999 c 0,0 0.12203,0.3369 0.40531,0.3369 0,0 0.16594,0 0.27344,-0.083 0,0 0.06828,0.0927 0.06828,0.2319 0,0 0,0.1392 -0.13922,0.2661 0,0 -0.13906,0.127 -0.42234,0.127 0,0 -0.28313,0 -0.51266,-0.1612 0,0 -0.19531,0.1612 -0.48594,0.1612 0,0 -0.29047,0 -0.51015,-0.1612 l 0,0 z M 2.66609,8.45219 c 0,0 0,0.39547 0.2636,0.67859 0,0 0.25875,0.27844 0.58109,0.27844 0,0 0.81547,0 0.81547,-1.17188 l 0,-2.13875 c 0,0 0,-0.53703 -0.19047,-0.84218 0,0 -0.19047,-0.30532 -0.53719,-0.30532 0,0 -0.62,0 -0.85437,0.6836 0,0 -0.07813,0.23437 -0.07813,0.56156 l 0,2.25594 0,0 z M 4.795,8.70609 c 0,0 0.24406,-0.09281 0.27344,-0.63968 0,0 0.02437,-0.54688 0.02437,-0.81297 0,0 0,-0.2661 -0.0025,-0.44438 0,0 -0.00234,-0.17828 -0.00734,-0.36859 0,0 -0.01953,-0.71297 -0.11234,-0.83016 0,0 -0.09266,-0.11718 -0.17563,-0.15625 l 0,3.25203 0,0 z M 1.47953,10.127 c 0,0 0.22953,-0.15637 0.25875,-0.65434 0,0 0.00984,-0.28328 0.01469,-0.65438 0,0 0.00969,-0.83484 0.01219,-1.06187 0,0 0.0025,-0.22719 0.0025,-0.38828 l 0,-0.38579 c 0,0 0,-0.07812 -0.0025,-0.19281 0,0 -0.0025,-0.11469 -0.005,-0.2489 0,0 -0.00235,-0.13438 -0.01204,-0.26141 0,0 -0.02453,-0.48328 -0.10515,-0.62735 0,0 -0.08047,-0.14406 -0.16344,-0.19781 l 0,0.29297 c 0,0 0,0.84969 -0.03672,0.99375 0,0 -0.03656,0.14391 -0.11718,0.21719 0,0 -0.08047,0.07328 -0.23672,0.12703 0,0 0.29296,0.1025 0.33203,0.24406 0,0 0.05859,0.21485 0.05859,1.20125 l 0,1.59669 z"
       inkscape:connector-curvature="0" />
    <path
       id="GlRye-Regular100"
       d="m 1.3575,9.94141 c 0,0 -0.22469,0.15629 -0.512812,0.15629 0,0 -0.287969,0 -0.417501,-0.13426 0,0 -0.129375,-0.13438 -0.129375,-0.25641 0,0 0,-0.16109 0.05375,-0.23437 0,0 0.1075,0.08296 0.273438,0.08296 0,0 0.3125,0 0.40531,-0.30265 l 0,-1.51859 c 0,0 0,-0.21485 -0.09281,-0.3125 0,0 -0.141563,-0.1611 -0.502969,-0.33688 0,0 0.341875,-0.15625 0.434688,-0.24906 0,0 0.161091,-0.1611 0.161091,-0.39547 l 0,-0.71297 c 0,0 0,-0.415 -0.283279,-0.44922 0,0 -0.082969,-0.00969 -0.21,-0.00969 0,0 -0.126875,0 -0.234219,0.08297 0,0 -0.068437,-0.09281 -0.068437,-0.19281 0,0 0,-0.10016 0.05125,-0.22469 0,0 0.05125,-0.12453 0.153906,-0.23687 0,0 0.25875,-0.2636 0.598129,-0.2636 0,0 0.33937,0 0.5639,0.10735 0,0 0.2686,-0.30266 0.54688,-0.30266 0,0 0.27828,0 0.38562,0.12938 0,0 0.1075,0.12937 0.1075,0.39796 l 0,0.45891 c 0,0 0.25391,-0.45406 0.69328,-0.72016 0,0 0.43954,-0.26609 0.93266,-0.26609 0,0 0.49328,0 0.79359,0.12938 0,0 0.30032,0.12937 0.49563,0.36859 0,0 0.38078,0.47375 0.38078,1.37703 l 0,0.32219 c 0,0 0,0.23437 0.1025,0.33703 0,0 0.15141,0.15625 0.49328,0.3125 0,0 -0.36625,0.18062 -0.45906,0.27344 0,0 -0.13672,0.15125 -0.13672,0.36609 l 0,1.52844 c 0,0 0.09281,0.30265 0.40531,0.30265 0,0 0.16594,0 0.27344,-0.08296 0,0 0.05375,0.07328 0.05375,0.21484 0,0 0,0.14156 -0.12953,0.27594 0,0 -0.12938,0.13426 -0.39797,0.13426 0,0 -0.26844,0 -0.48813,-0.15145 0,0 -0.19531,0.15145 -0.45656,0.15145 0,0 -0.26125,0 -0.4664,-0.14661 0,0 -0.21485,0.14661 -0.45907,0.14661 0,0 -0.24406,0 -0.38562,-0.12207 0,0 -0.14156,-0.12219 -0.14156,-0.35157 0,0 0,-0.1075 0.07328,-0.17094 0,0 0.11219,0.08782 0.22453,0.08782 0,0 0.21484,0 0.30765,-0.23922 l 0,-2.91016 c 0,0 0,-0.94719 -0.4639,-1.09859 0,0 -0.15141,-0.04891 -0.32719,-0.04891 0,0 -0.17578,0 -0.32719,0.07094 0,0 -0.15125,0.07078 -0.27328,0.19766 0,0 -0.26859,0.28328 -0.3175,0.6739 l 0,3.11516 c 0,0 0.09282,0.23922 0.30766,0.23922 0,0 0.11234,0 0.22469,-0.08782 0,0 0.07312,0.06344 0.07312,0.23188 0,0 0,0.16844 -0.14156,0.29063 0,0 -0.14156,0.12207 -0.37359,0.12207 0,0 -0.23188,0 -0.42235,-0.14661 0,0 -0.18547,0.14661 -0.45406,0.14661 0,0 -0.26859,0 -0.49797,-0.15629 l 0,0 z M 4.81937,8.70609 c 0,0 0.24407,-0.09281 0.2686,-0.63968 0,0 0.02922,-0.54688 0.02922,-1.03032 0,0 0,-0.48343 -0.03907,-0.79828 0,0 -0.03906,-0.315 -0.11234,-0.49312 0,0 -0.07312,-0.17828 -0.17328,-0.25875 0,0 -0.10016,-0.08063 -0.21734,-0.13922 0,0 0.18562,0.43937 0.21484,0.80078 0,0 0.02937,0.36125 0.02937,0.69813 l 0,1.86046 0,0 z M 1.77969,7.62703 c 0,0 0.0025,-0.16125 0.005,-0.27109 0,0 0.0025,-0.10985 0.0025,-0.17813 0,0 0,-0.06843 0,-0.13922 0,0 0,-0.07078 -0.0025,-0.18797 0,0 -0.0025,-0.11718 -0.005,-0.25875 0,0 -0.00235,-0.14171 -0.01203,-0.27843 0,0 -0.01469,-0.33688 -0.04407,-0.46391 0,0 -0.05859,-0.28312 -0.22453,-0.39062 l 0,0.3175 c 0,0 0,0.82031 -0.03672,0.96437 0,0 -0.03656,0.14391 -0.11718,0.21719 0,0 -0.08047,0.07328 -0.23672,0.12703 0,0 0.29297,0.1025 0.33203,0.24406 0,0 0.05859,0.23438 0.05859,1.05469 l 0,0.31734 c 0,0 0.22453,-0.1464 0.25875,-0.59562 0,0 0.01953,-0.31735 0.02188,-0.47844 z"
       inkscape:connector-curvature="0" />
    <path
       id="GlRye-Regular90"
       d="m 5.00484,10.0977 c 0,0 -0.49797,0 -0.77625,-0.53723 0,0 -0.34672,0.40047 -0.92781,0.52753 0,0 -0.17094,0.034 -0.33687,0.034 0,0 -1.02547,0 -1.59188,-0.64934 0,0 -0.517499,-0.60063 -0.580936,-1.69922 0,0 -0.009844,-0.21485 -0.097656,-0.32719 0,0 -0.146563,-0.18547 -0.498126,-0.35641 0,0 0.576251,-0.26375 0.600625,-0.81062 0,0 0.024375,-0.54688 0.192813,-0.935 0,0 0.16844,-0.38813 0.45172,-0.63719 0,0 0.54203,-0.46875 1.51359,-0.46875 0,0 0.53235,0 0.92297,0.27344 0,0 0.13172,0.09281 0.22453,0.21484 l 0,-1.04984 c 0,0 0,-0.55656 -0.45406,-0.55656 0,0 -0.16609,0 -0.27344,0.08296 0,0 -0.06843,-0.09281 -0.06843,-0.19281 0,0 0,-0.10015 0.05125,-0.19297 0,0 0.0514,-0.09281 0.15874,-0.17093 0,0 0.22954,-0.16594 0.5811,-0.16594 0,0 0.35156,0 0.54687,0.04391 0,0 0.2686,-0.33688 0.60547,-0.33688 0,0 0.50297,0 0.50297,0.52734 l 0,3.72563 c 0,0 0,0.37109 0.59563,0.64453 0,0 -0.59563,0.26844 -0.59563,0.63953 l 0,1.46485 c 0,0 0.14156,0.36624 0.40516,0.36624 0,0 0.16609,0 0.27344,-0.08296 0,0 0.06843,0.09281 0.06843,0.23203 0,0 0,0.13906 -0.13922,0.26609 0,0 -0.13906,0.12692 -0.4175,0.12692 0,0 -0.27828,0 -0.5175,-0.15629 0,0 -0.21,0.15629 -0.42,0.15629 l 0,0 z M 4.57031,8.70609 c 0,0 0.24422,-0.09281 0.26375,-0.58109 0,0 0.00485,-0.11234 0.00719,-0.27594 0,0 0.0025,-0.16359 0.00734,-0.36375 0,0 0.005,-0.20015 0.005,-0.40531 L 4.86328,6.68938 c 0,0 0,-0.19032 0.00235,-0.33438 0,0 0.0025,-0.14406 0.0025,-0.22703 l 0,-0.07328 c 0,0 0,-0.01469 -0.0025,-0.13922 0,0 -0.00235,-0.12453 -0.00485,-0.3075 0,0 -0.00234,-0.18313 -0.00719,-0.39313 L 4.84375,4.80469 c 0,0 -0.00969,-0.44922 -0.03422,-0.57125 0,0 -0.03906,-0.24422 -0.23922,-0.33703 l 0,4.80968 0,0 z m -1.34765,-3.755 c 0,0 -0.78125,0 -0.78125,1.1475 l 0,2.13875 c 0,0 0,0.89344 0.59078,1.10829 0,0 0.16609,0.06359 0.32968,0.06359 0,0 0.1636,0 0.29782,-0.06594 0,0 0.13422,-0.06594 0.23187,-0.17344 0,0 0.21,-0.23922 0.21,-0.57125 l 0,-2.5 c 0,0 0,-0.89843 -0.54687,-1.0889 0,0 -0.1611,-0.0586 -0.33203,-0.0586 l 0,0 z m -1.57719,3.755 c 0,0 0.06844,-0.05375 0.06844,-0.12218 0,0 0,-0.10735 -0.04391,-0.27344 0,0 -0.20031,-0.76656 -0.20031,-1.06188 0,0 0,-0.29547 0.01953,-0.4664 0,0 0.01953,-0.17094 0.05375,-0.33688 0,0 0.06344,-0.35156 0.12703,-0.59578 0,0 0.04391,-0.16594 0.04391,-0.22453 0,0 0,-0.11719 -0.06844,-0.17094 0,0 -0.205,0.24422 -0.3125,0.65922 0,0 -0.10735,0.415 -0.17578,0.7275 0,0 -0.02438,0.12703 -0.287971,0.24906 0,0 0.263591,0.12204 0.287971,0.24907 0,0 0.18078,0.82515 0.29797,1.04484 0,0 0.11718,0.21969 0.19031,0.32234 z"
       inkscape:connector-curvature="0" />
    <path
       id="GlRye-Regular101"
       d="m 1.55281,9.45312 c 0,0 -0.30765,-0.3125 -0.48593,-0.74218 0,0 -0.17813,-0.42969 -0.217192,-0.73735 0,0 -0.039063,-0.30765 -0.065938,-0.39547 0,0 -0.026875,-0.08796 -0.090312,-0.16609 0,0 -0.127032,-0.16109 -0.463907,-0.32703 0,0 0.424844,-0.19047 0.542032,-0.61047 0,0 0.034062,-0.11719 0.053593,-0.23437 0,0 0.127031,-0.87391 0.844684,-1.46235 0,0 0.71782,-0.58843 1.67485,-0.58843 0,0 0.99609,0 1.7139,0.59578 0,0 0.69828,0.58109 0.82516,1.455 0,0 0.04406,0.30765 0.13187,0.44922 0,0 0.1661,0.2589 0.46391,0.39562 0,0 -0.33203,0.16109 -0.42969,0.28313 0,0 -0.13187,0.17093 -0.16609,0.40531 0,0 -0.15625,1.15234 -0.80078,1.75047 0,0 -0.64453,0.59809 -1.71875,0.59809 0,0 -1.15234,0 -1.81141,-0.66888 l 0,0 z M 4.18453,6.09859 c 0,0 0,-1.22062 -0.83015,-1.22062 0,0 -0.83,0 -0.83,1.22062 l 0,2.16313 c 0,0 0,1.17187 0.82531,1.17187 0,0 0.83484,0 0.83484,-1.17187 l 0,-2.16313 0,0 z m 0.46875,2.6075 c 0,0 0.24422,-0.09281 0.2686,-0.63968 0,0 0.02937,-0.54688 0.02937,-0.81297 0,0 0,-0.2661 -0.0025,-0.44438 0,0 -0.0025,-0.17828 -0.00734,-0.36859 0,0 -0.01953,-0.71297 -0.11235,-0.83016 0,0 -0.09265,-0.11718 -0.17578,-0.15625 l 0,3.25203 0,0 z m -2.92469,0 c 0,0 0.06829,-0.05375 0.06829,-0.12218 0,0 0,-0.10735 -0.04391,-0.27344 0,0 -0.20016,-0.76656 -0.20016,-1.06688 0,0 0,-0.30031 0.01953,-0.46875 0,0 0.01953,-0.16843 0.04875,-0.33937 0,0 0.06344,-0.33203 0.13188,-0.58594 0,0 0.04391,-0.16594 0.04391,-0.22453 0,0 0,-0.11719 -0.06829,-0.17094 0,0 -0.20515,0.24422 -0.31265,0.65438 0,0 -0.10735,0.41015 -0.17563,0.72265 0,0 -0.02453,0.13172 -0.288123,0.25391 0,0 0.263593,0.12203 0.288123,0.24406 0,0 0.18063,0.82516 0.29781,1.04985 0,0 0.11719,0.22453 0.19047,0.32718 z"
       inkscape:connector-curvature="0" />
    <path
       id="GlRye-Regular99"
       d="m 1.40625,9.94141 c 0,0 -0.22453,0.15629 -0.512656,0.15629 0,0 -0.288125,0 -0.4175,-0.13426 0,0 -0.129375,-0.13438 -0.129375,-0.25641 0,0 0,-0.16109 0.05375,-0.23437 0,0 0.107343,0.08296 0.273437,0.08296 0,0 0.3125,0 0.405154,-0.30265 l 0,-1.52344 c 0,0 0,-0.21484 -0.092654,-0.3125 0,0 -0.131875,-0.15141 -0.502968,-0.33203 0,0 0.341718,-0.15625 0.434531,-0.24906 0,0 0.161091,-0.1611 0.161091,-0.39547 l 0,-0.71297 c 0,0 0,-0.415 -0.283123,-0.44922 0,0 -0.082968,-0.00969 -0.209999,-0.00969 0,0 -0.126876,0 -0.234376,0.08297 0,0 -0.068281,-0.09281 -0.068281,-0.19281 0,0 0,-0.10016 0.05125,-0.22469 0,0 0.05125,-0.12453 0.15375,-0.23687 0,0 0.25875,-0.2636 0.598129,-0.2636 0,0 0.33937,0 0.56406,0.10735 0,0 0.26844,-0.30266 0.57609,-0.30266 0,0 0.50297,0 0.50297,0.52734 L 2.72469,5.17094 c 0,0 0.41015,-0.65438 1.1425,-0.86438 0,0 0.23922,-0.06828 0.49312,-0.06828 0,0 0.57625,0 0.95703,0.27828 0,0 0.38094,0.27828 0.54688,0.7911 0,0 0.36625,-0.75688 1.18656,-0.99125 0,0 0.26859,-0.07813 0.60797,-0.07813 0,0 0.33937,0 0.63953,0.12938 0,0 0.30031,0.12937 0.51031,0.36859 0,0 0.42485,0.49813 0.42485,1.37703 L 9.21875,6.44047 c 0,0 0,0.23437 0.1025,0.33687 0,0 0.15141,0.15141 0.49328,0.30766 0,0 -0.37109,0.18062 -0.45906,0.27828 0,0 -0.13672,0.15141 -0.13672,0.36625 l 0,1.52344 c 0,0 0.09281,0.30265 0.40531,0.30265 0,0 0.11719,0 0.22453,-0.08296 0,0 0.02938,0.03906 0.06594,0.07578 0,0 0.03672,0.03656 0.03672,0.15859 0,0 0,0.12203 -0.12953,0.25641 0,0 -0.12938,0.13426 -0.41016,0.13426 0,0 -0.28062,0 -0.52,-0.15629 0,0 -0.21968,0.15629 -0.49078,0.15629 0,0 -0.27094,0 -0.47594,-0.14661 0,0 -0.19046,0.14661 -0.42734,0.14661 0,0 -0.23672,0 -0.37844,-0.12207 0,0 -0.14156,-0.12219 -0.14156,-0.35157 0,0 0,-0.1075 0.07328,-0.17094 0,0 0.11234,0.08782 0.22469,0.08782 0,0 0.21484,0 0.3075,-0.23922 l 0,-2.91016 c 0,0 0,-1.1475 -0.83485,-1.1475 0,0 -0.23937,0 -0.46875,0.27844 0,0 -0.22953,0.27344 -0.29796,0.66406 L 5.96687,9.30172 c 0,0 0.09266,0.23922 0.30751,0.23922 0,0 0.11234,0 0.22468,-0.08782 0,0 0.07328,0.06344 0.07328,0.23188 0,0 0,0.16844 -0.14171,0.29063 0,0 -0.14157,0.12207 -0.38079,0.12207 0,0 -0.23922,0 -0.42968,-0.14661 0,0 -0.21,0.14661 -0.4761,0.14661 0,0 -0.26609,0 -0.47125,-0.14661 0,0 -0.19031,0.14661 -0.42718,0.14661 0,0 -0.23688,0 -0.37844,-0.12207 0,0 -0.14157,-0.12219 -0.14157,-0.35157 0,0 0,-0.1075 0.07329,-0.17094 0,0 0.11218,0.08782 0.22453,0.08782 0,0 0.21484,0 0.30765,-0.23922 l 0,-2.91016 c 0,0 0,-0.91312 -0.44437,-1.0889 0,0 -0.14156,-0.0586 -0.3125,-0.0586 0,0 -0.32719,0 -0.56641,0.28328 0,0 -0.22453,0.2636 -0.28312,0.66407 L 2.71484,9.30172 c 0,0 0.09282,0.23922 0.30766,0.23922 0,0 0.11234,0 0.22453,-0.08782 0,0 0.08797,0.07329 0.08797,0.23688 0,0 0,0.16344 -0.14891,0.28563 0,0 -0.1489,0.12207 -0.39062,0.12207 0,0 -0.24172,0 -0.42734,-0.14161 0,0 -0.19532,0.14161 -0.46391,0.14161 0,0 -0.26844,0 -0.49797,-0.15629 l 0,0 z M 7.90531,5.45406 c 0,0 0.14641,0.35641 0.14641,1.39157 l 0,1.86046 c 0,0 0.24422,-0.09281 0.26859,-0.63968 0,0 0.02938,-0.54688 0.02938,-0.96922 0,0 0,-0.42235 -0.02453,-0.70547 0,0 -0.02438,-0.28328 -0.07813,-0.47375 0,0 -0.09765,-0.34188 -0.34172,-0.46391 l 0,0 z m -3.25203,0 c 0,0 0.14656,0.35641 0.14656,1.39157 l 0,1.86046 c 0,0 0.24407,-0.09281 0.2686,-0.63968 0,0 0.02922,-0.54688 0.02922,-0.96922 0,0 0,-0.42235 -0.02438,-0.70547 0,0 -0.02437,-0.28328 -0.07812,-0.47375 0,0 -0.09766,-0.34188 -0.34188,-0.46391 l 0,0 z M 1.54781,8.70609 c 0,0 0.22953,-0.14656 0.25891,-0.61046 0,0 0.01953,-0.35157 0.01953,-0.62985 l 0,-0.62015 c 0,0 0,-0.72266 -0.03906,-0.92766 0,0 -0.06844,-0.35156 -0.23938,-0.46391 l 0,0.31735 c 0,0 0,0.82531 -0.03656,0.96937 0,0 -0.03656,0.14391 -0.11719,0.21719 0,0 -0.08062,0.07328 -0.23687,0.12703 0,0 0.29297,0.1025 0.33203,0.24406 0,0 0.05859,0.23438 0.05859,1.05953 l 0,0.3175 z"
       inkscape:connector-curvature="0" />
    <path
       id="GlRye-Regular93"
       d="m 1.05469,10.1905 c 0,0 -0.351565,-0.32238 -0.351565,-0.80081 0,0 0,-0.71297 0.844685,-1.17188 0,0 -0.551716,-0.38578 -0.805622,-1.22078 0,0 -0.082969,-0.25875 -0.165938,-0.35156 0,0 -0.122187,-0.14641 -0.42,-0.29297 0,0 0.244219,-0.11234 0.373594,-0.28812 0,0 0.129375,-0.17579 0.224531,-0.45891 0,0 0.095313,-0.28328 0.268595,-0.54203 0,0 0.17328,-0.25875 0.44672,-0.45406 0,0 0.60062,-0.42 1.54797,-0.42 0,0 0.30265,0 0.62984,0.06359 0,0 0.06828,-0.53234 0.47359,-0.90344 0,0 0.40047,-0.37594 0.9375,-0.37594 0,0 0.62985,0 1.05954,0.32719 0,0 0.23437,0.17578 0.46875,0.13188 0,0 0.01953,0.39062 -0.30266,0.50281 0,0 -0.05375,0.65922 -0.57125,0.65922 0,0 -0.20516,0 -0.24906,-0.02922 0,0 0.07328,-0.06359 0.07328,-0.1636 0,0 0,-0.10015 -0.08313,-0.17343 0,0 -0.1025,0.19047 -0.4589,0.19047 0,0 -0.19532,0 -0.30766,-0.18547 0,0 0.18562,-0.0586 0.29297,-0.17828 0,0 0.1075,-0.11969 0.1075,-0.22219 0,0 0,-0.26859 -0.28328,-0.26859 0,0 -0.54688,0 -0.63969,0.84968 0,0 0.88875,0.38078 1.13281,1.19625 0,0 0.16125,0.55172 0.59578,0.74219 0,0 -0.38093,0.19047 -0.50297,0.42484 0,0 -0.04875,0.09282 -0.08781,0.21969 0,0 -0.26375,0.83016 -0.82531,1.22328 0,0 -0.56141,0.39297 -1.44531,0.39297 0,0 -0.56141,0 -0.97656,-0.13672 0,0 -0.1611,0.1025 -0.1611,0.22703 0,0 0,0.12453 0.04875,0.21 0,0 0.04891,0.08547 0.17594,0.15375 0,0 0.24891,0.13188 0.94719,0.23438 0,0 0.31734,0.06344 0.65437,-0.41016 0,0 0.01953,0.24906 0.11219,0.3736 0,0 0.09281,0.12453 0.20515,0.13906 0,0 1.34766,0.20031 1.74313,0.87908 0,0 0.13672,0.2294 0.13672,0.5883 0,0 0,0.3589 -0.22953,0.6982 0,0 -0.22938,0.3394 -0.62,0.5786 0,0 -0.81063,0.4883 -1.99219,0.4883 0,0 -1.38672,0 -2.119219,-0.454 0,0 -0.629843,-0.3955 -0.629843,-1.0108 0,0 0,-0.4102 0.415,-0.7764 0,0 0.136718,-0.1172 0.312502,-0.205 l 0,0 z m 1.5039,-2.46581 c 0,0 0.1075,0.15125 0.21485,0.19281 0,0 0.1075,0.04141 0.2514,0.04141 0,0 0.14407,0 0.25141,-0.04141 0,0 0.1075,-0.04156 0.18078,-0.14406 0,0 0.14156,-0.20016 0.14156,-0.67391 l 0,-1.3525 c 0,0 0,-0.47359 -0.1075,-0.625 0,0 -0.10734,-0.1514 -0.21484,-0.19281 0,0 -0.10734,-0.04156 -0.25141,-0.04156 0,0 -0.1439,0 -0.2514,0.04156 0,0 -0.10735,0.04141 -0.17578,0.13906 0,0 -0.14641,0.20516 -0.14641,0.67875 l 0,1.3525 c 0,0 0,0.47375 0.10734,0.62516 l 0,0 z M 4.07234,7.69047 c 0,0 0.22454,-0.07813 0.25875,-0.48344 0,0 0.03422,-0.38094 0.03422,-0.85453 0,0 0,-0.73234 -0.03906,-0.9375 0,0 -0.05859,-0.27344 -0.25391,-0.35641 l 0,2.63188 0,0 z m -2.54406,0 c 0,0 0.09766,-0.07328 0.09766,-0.17094 0,0 0,-0.12703 -0.03407,-0.24422 0,0 -0.13187,-0.44922 -0.13187,-0.92281 0,0 0,-0.46875 0.13187,-0.91797 0,0 0.03407,-0.11719 0.03407,-0.18547 l 0,-0.11719 c 0,0 0,-0.04406 -0.03906,-0.07328 0,0 -0.20016,0.24407 -0.29047,0.55657 0,0 -0.09032,0.3125 -0.14407,0.55187 0,0 -0.01953,0.07313 -0.273434,0.18547 0,0 0.258754,0.12703 0.273434,0.19047 L 1.25,6.95312 c 0,0 0.12703,0.51751 0.27828,0.73735 l 0,0 z M 1.27937,9.42875 c 0,0 -0.04406,0.04391 -0.04406,0.12687 0,0 0.01953,0.52738 1.50391,0.79598 0,0 0.17094,0.039 0.24422,0.3711 0,0 0.02437,-0.1074 0.19281,-0.1783 0,0 0.16844,-0.0708 0.22703,-0.0658 0,0 0.73734,0.0878 0.9961,0.1659 0,0 0.45906,0.1416 0.66906,0.42 0,0 0.05859,-0.0684 0.05859,-0.1759 0,0 0,-0.1074 -0.1075,-0.2172 0,0 -0.10734,-0.1098 -0.35156,-0.1928 0,0 -0.41985,-0.1514 -1.13766,-0.2345 0,0 -0.71781,-0.083 -1.00843,-0.1464 0,0 -0.29047,-0.0635 -0.53454,-0.15629 0,0 -0.53218,-0.21 -0.70797,-0.51266 l 0,0 z m 0.2636,1.07425 c 0,0 -0.34672,0.1514 -0.34672,0.5664 0,0 0,0.332 0.50297,0.6006 0,0 0.56156,0.3027 1.45016,0.3027 0,0 1.09375,0 1.42093,-0.376 0,0 0.09281,-0.1025 0.09281,-0.2173 0,0 0,-0.1147 -0.10984,-0.2027 0,0 -0.10984,-0.0878 -0.28562,-0.1415 0,0 -0.25891,-0.0879 -0.81547,-0.1515 0,0 -0.2686,-0.0292 -0.66407,0.3957 0,0 0,-0.2735 -0.09031,-0.3957 0,0 -0.09031,-0.122 -0.17828,-0.1317 0,0 -0.56641,-0.0732 -0.97656,-0.249 z"
       inkscape:connector-curvature="0" />
    <path
       id="GlRye-Regular36"
       d="m 0.380937,9.19922 c 0,0 0.273438,-0.17094 0.344219,-0.27594 0,0 0.070781,-0.105 0.114688,-0.18797 0,0 0.117187,-0.21969 0.344216,-0.34422 0,0 0.22703,-0.12453 0.49078,-0.12453 0,0 0.54688,0 0.79094,0.45907 0,0 0.19531,0.36124 0.46391,0.47359 0,0 -0.07328,0.0439 -0.13672,0.07812 0,0 -0.06344,0.03422 -0.11719,0.07813 0,0 -0.11234,0.09281 -0.22469,0.28562 0,0 -0.11218,0.19282 -0.31968,0.33688 0,0 -0.2075,0.14403 -0.45657,0.14403 0,0 -0.24906,0 -0.48109,-0.14403 0,0 -0.231875,-0.14406 -0.353906,-0.36375 0,0 -0.141563,-0.24406 -0.256406,-0.31 0,0 -0.114688,-0.06594 -0.202501,-0.105 l 0,0 z M 1.46484,9.49953 c 0,0 -0.02922,-0.05125 -0.0464,-0.12203 0,0 -0.01703,-0.07094 -0.01703,-0.26375 0,0 0,-0.19281 0.18547,-0.47125 0,0 -0.10735,0 -0.19047,0.04156 0,0 -0.08297,0.04157 -0.14641,0.12453 0,0 -0.06344,0.08297 -0.09031,0.12938 0,0 -0.02688,0.04641 -0.06594,0.09516 0,0 -0.09281,0.13671 -0.151406,0.16609 0,0 0.078126,0.0439 0.144066,0.13922 0,0 0.06593,0.09515 0.1539,0.2025 0,0 0.13172,0.15625 0.34657,0.15625 0,0 -0.02922,-0.0536 -0.06094,-0.1 0,0 -0.03172,-0.04641 -0.0611,-0.09766 z"
       inkscape:connector-curvature="0" />
    <path
       id="GlRye-Regular59"
       d="m 2.19734,10.0977 c 0,0 -0.32234,0 -0.5714,-0.15629 0,0 -0.24891,0.15629 -0.46141,0.15629 0,0 -0.212343,0 -0.349061,-0.0368 0,0 -0.136719,-0.0365 -0.239219,-0.09996 0,0 -0.21,-0.12703 -0.21,-0.31735 0,0 0,-0.09765 0.05375,-0.17093 0,0 0.107344,0.08296 0.273438,0.08296 0,0 0.434532,0 0.600472,-0.37109 l 0,-2.38765 c 0,0 0,-0.22469 -0.09266,-0.33204 0,0 -0.14656,-0.18062 -0.502969,-0.3564 0,0 0.332029,-0.15141 0.429689,-0.2686 0,0 0.16594,-0.19046 0.16594,-0.42968 l 0,-2.06063 c 0,0 -0.16594,-0.37594 -0.600472,-0.37594 0,0 -0.166094,0 -0.273438,0.08297 0,0 -0.05375,-0.07312 -0.05375,-0.16828 0,0 0,-0.09531 0.056094,-0.17828 0,0 0.05625,-0.08312 0.153906,-0.14172 0,0 0.224531,-0.13672 0.515,-0.13672 0,0 0.29062,0 0.53469,0.16125 0,0 0.2539,-0.16125 0.58109,-0.16125 0,0 0.32719,0 0.59578,0.19047 0,0 0.5175,-0.19047 1.19625,-0.19047 0,0 0.50297,0 0.85938,0.09766 l 0.43453,0.11719 c 0,0 0.07812,0.01953 0.1514,0.01953 0,0 0.13672,0 0.13672,-0.19531 0,0 0,-0.04875 -0.03421,-0.16594 0,0 0.13671,-0.02438 0.34671,-0.02438 0,0 0.21,0 0.35641,0.13922 0,0 0.14656,0.13906 0.14656,0.40031 0,0 0,0.26125 -0.09281,0.38328 0,0 0.13187,0.19532 0.13187,0.4761 0,0 0,0.28078 -0.19046,0.47109 0,0 0.05859,0.14657 0.05859,0.28578 0,0 0,0.13907 -0.04641,0.25391 0,0 -0.0464,0.11469 -0.11468,0.19281 0,0 -0.13672,0.14157 -0.27844,0.14157 0,0 -0.205,0 -0.37109,-0.08782 0,0 0.05859,-0.11719 0.05859,-0.34672 0,0 0,-0.53718 -0.26844,-0.94234 0,0 -0.36625,-0.55672 -1.09875,-0.55672 0,0 -0.37109,0 -0.6714,0.18078 0,0 -0.30016,0.18063 -0.42235,0.5175 l 0,1.88969 c 0,0 0.17094,0.10734 0.31985,0.10734 0,0 0.1489,0 0.22453,-0.00484 0,0 0.07578,-0.00484 0.1539,-0.01953 0,0 0.20016,-0.02938 0.30766,-0.07813 0,0 0.205,-0.09765 0.205,-0.47859 0,0 0,-0.21484 -0.1025,-0.33203 0,0 0.09766,-0.06828 0.24422,-0.06828 0,0 0.32703,0 0.47359,0.26359 0,0 0.05375,0.09281 0.05375,0.20516 0,0 0,0.11234 -0.05859,0.27828 0,0 0.20015,0.22953 0.20015,0.54453 0,0 0,0.31484 -0.20015,0.54437 0,0 0.05859,0.16594 0.05859,0.30032 0,0 0,0.13422 -0.05375,0.2564 0,0 -0.05375,0.12203 -0.13187,0.19516 0,0 -0.15141,0.13672 -0.34172,0.13672 0,0 -0.13672,0 -0.24422,-0.07813 0,0 0.1025,-0.17078 0.1025,-0.40031 0,0 0,-0.45406 -0.24891,-0.56156 0,0 -0.21984,-0.08781 -0.50312,-0.08781 0,0 -0.28313,0 -0.45891,0.1025 l 0,2.4414 c 0,0 0.28328,0.49797 1.09375,0.49797 0,0 0.91797,0 1.25,-0.5664 0,0 0.38578,-0.64938 0.38578,-1.39157 0,0 0,-0.21484 -0.03906,-0.33203 0,0 0.12203,-0.12203 0.25391,-0.12203 0,0 0.13187,0 0.20015,0.03672 0,0 0.06844,0.03656 0.12219,0.09016 0,0 0.11719,0.13187 0.11719,0.26859 L 6.44531,7.66594 c 0,0 0,0.09281 0.04891,0.1514 0,0 0.09765,0.1025 0.09765,0.19297 0,0 0,0.09032 -0.05859,0.21719 0,0 0.11219,0.06344 0.2025,0.18797 0,0 0.09047,0.12453 0.09047,0.25641 0,0 0,0.27828 -0.23438,0.49796 0,0 0.1025,0.14657 0.1025,0.4225 0,0 0,0.27578 -0.15874,0.46856 0,0 -0.1586,0.193 -0.41251,0.193 0,0 -0.13671,0 -0.28328,-0.0292 0,0 0.01954,-0.1075 0.01954,-0.2149 0,0 0,-0.22464 -0.20501,-0.22464 0,0 -0.22953,0 -0.45906,0.09281 0,0 -0.54203,0.21973 -1.23297,0.21973 0,0 -0.69078,0 -1.17422,-0.18067 0,0 -0.2539,0.18067 -0.59078,0.18067 l 0,0 z M 1.76266,8.70609 c 0,0 0.24421,-0.09281 0.26859,-0.63968 0,0 0.02937,-0.54688 0.02937,-1.5136 0,0 0,-0.96687 -0.0025,-1.28672 0,0 -0.00249,-0.31984 -0.00734,-0.51515 0,0 -0.01469,-0.5761 -0.10984,-0.69578 0,0 -0.09516,-0.11969 -0.17828,-0.15875 0,0 0,1.69922 -0.0586,1.93359 0,0 -0.06828,0.19531 -0.33203,0.27844 0,0 0.29297,0.1025 0.33203,0.2489 0,0 0.0586,0.23438 0.0586,1.71391 l 0,0.63484 0,0 z m 1.23047,-0.0489 c 0,0 0,0.01469 0.00499,0.02437 L 2.99313,8.65719 Z"
       inkscape:connector-curvature="0" />
    <path
       id="GlRye-Regular79"
       d="m 4.00391,9.94141 c 0,0 -0.24907,0.15629 -0.56641,0.15629 0,0 -0.31734,0 -0.56641,-0.15629 0,0 -0.24906,0.15629 -0.4614,0.15629 0,0 -0.21235,0 -0.35641,-0.0368 0,0 -0.14406,-0.0365 -0.2564,-0.09996 0,0 -0.23438,-0.12703 -0.23438,-0.31735 0,0 0,-0.09765 0.05375,-0.17093 0,0 0.10734,0.08296 0.28562,0.08296 0,0 0.17829,0 0.36126,-0.09265 0,0 0.18312,-0.09281 0.27593,-0.28813 l 0,-0.96203 c 0,0 0,-0.22453 -0.08781,-0.33203 0,0 -0.15625,-0.19031 -0.50781,-0.36125 0,0 0.32703,-0.1514 0.42968,-0.26375 0,0 0.16594,-0.19031 0.16594,-0.42969 l 0,-0.17578 -1.96281,-3.39843 c 0,0 -0.283281,-0.25391 -0.503125,-0.25391 0,0 -0.219688,0 -0.346563,0.08312 0,0 -0.05375,-0.03906 -0.05375,-0.1464 0,0 0,-0.1075 0.034219,-0.19782 0,0 0.034219,-0.09046 0.107344,-0.15875 0,0 0.15625,-0.14656 0.454062,-0.14656 0,0 0.297969,0 0.5275,0.17094 0,0 0.244063,-0.17094 0.578593,-0.17094 0,0 0.33453,0 0.54938,0.1661 0,0 0.25875,-0.1661 0.48328,-0.1661 0,0 0.22468,0 0.3614,0.03188 0,0 0.13672,0.03172 0.23922,0.09515 0,0 0.21969,0.12688 0.22953,0.35157 0,0 0,0.13672 -0.05375,0.17093 0,0 -0.13187,-0.08312 -0.26359,-0.08312 0,0 -0.28328,0 -0.45906,0.10265 l 1.46,2.80266 1.38672,-2.80765 c 0,0 -0.20016,-0.12204 -0.46141,-0.12204 0,0 -0.26125,0 -0.40281,0.08297 0,0 -0.04891,-0.07312 -0.04891,-0.22937 0,0 0,-0.15625 0.13188,-0.27594 0,0 0.13187,-0.11969 0.37593,-0.11969 0,0 0.24422,0 0.42,0.12703 0,0 0.15625,-0.12703 0.38078,-0.12703 0,0 0.22469,0 0.37594,0.1075 0,0 0.21485,-0.1075 0.42969,-0.1075 0,0 0.21484,0 0.34422,0.13922 0,0 0.12953,0.13922 0.12953,0.35891 0,0 0,0.11234 -0.05375,0.1514 0,0 -0.12703,-0.08312 -0.3125,-0.08312 0,0 -0.32234,0 -0.57125,0.17578 l -1.70906,3.38391 0,0.26843 c 0,0 0,0.23938 0.1025,0.35657 0,0 0.16609,0.18547 0.49328,0.33687 0,0 -0.35156,0.17094 -0.44922,0.28813 0,0 -0.14656,0.18062 -0.14656,0.40515 l 0,0.96203 c 0,0 0.08797,0.19532 0.27094,0.28813 0,0 0.18312,0.09265 0.36375,0.09265 0,0 0.18078,0 0.28812,-0.08296 0,0 0.05375,0.07328 0.05375,0.16843 0,0 0,0.09516 -0.06344,0.17829 0,0 -0.06344,0.08296 -0.17094,0.14156 0,0 -0.24406,0.13676 -0.53468,0.13676 0,0 -0.29047,0 -0.53953,-0.15629 l 0,0 z M 3.00781,8.70609 c 0,0 0.25875,-0.09765 0.28328,-0.76671 0,0 0.00485,-0.205 0.00485,-0.41985 l 0,-0.81547 c 0,0 0,-0.23437 -0.08797,-0.38578 L 2.20703,4.50687 c 0,0 -0.21,-0.36625 -0.30266,-0.45421 0,0 -0.14656,-0.13672 -0.35156,-0.15625 l 1.46485,2.71484 0,0.23937 c 0,0 0,0.28797 -0.03907,0.39547 0,0 -0.05859,0.18547 -0.3614,0.27829 0,0 0.32718,0.12203 0.37109,0.29781 0,0 0.03422,0.13672 0.03422,0.31984 0,0 0,0.18313 -0.00734,0.31984 0,0 -0.00735,0.13672 -0.00735,0.24422 z"
       inkscape:connector-curvature="0" />
    <path
       id="GlRye-Regular58"
       d="m 2.19734,10.0977 c 0,0 -0.32234,0 -0.5714,-0.15629 0,0 -0.24891,0.15629 -0.46141,0.15629 0,0 -0.212343,0 -0.349061,-0.0368 0,0 -0.136719,-0.0365 -0.239219,-0.09996 0,0 -0.21,-0.12703 -0.21,-0.31735 0,0 0,-0.09765 0.05375,-0.17093 0,0 0.107344,0.08296 0.273438,0.08296 0,0 0.434532,0 0.600472,-0.37109 l 0,-2.38765 c 0,0 0,-0.22469 -0.09266,-0.33204 0,0 -0.14656,-0.18062 -0.502969,-0.3564 0,0 0.332029,-0.15141 0.429689,-0.2686 0,0 0.16594,-0.19046 0.16594,-0.42968 l 0,-2.06063 c 0,0 -0.16594,-0.37594 -0.600472,-0.37594 0,0 -0.166094,0 -0.273438,0.08297 0,0 -0.05375,-0.07312 -0.05375,-0.16828 0,0 0,-0.09531 0.056094,-0.17828 0,0 0.05625,-0.08312 0.153906,-0.14172 0,0 0.224531,-0.13672 0.515,-0.13672 0,0 0.29062,0 0.53469,0.16125 0,0 0.2539,-0.16125 0.53953,-0.16125 0,0 0.28578,0 0.52984,0.12219 0,0 0.57625,-0.17094 1.06938,-0.17094 0,0 0.49312,0 0.8739,0.05375 0,0 0.38094,0.0536 0.72766,0.18797 0,0 0.34672,0.13422 0.65188,0.35891 0,0 0.30515,0.22453 0.54437,0.5614 0,0 0.50781,0.70813 0.64938,1.875 0,0 0.02937,0.28813 0.12218,0.40532 0,0 0.15625,0.19046 0.42469,0.28328 0,0 -0.28313,0.10734 -0.37109,0.21968 0,0 -0.14641,0.18547 -0.17578,0.46876 0,0 -0.1611,1.62109 -1.08876,2.5 0,0 -0.89359,0.84972 -2.31937,0.84972 0,0 -0.57125,0 -1.02547,-0.17597 0,0 -0.21969,0.12707 -0.58094,0.12707 l 0,0 z M 3.09078,9.23344 c 0,0 0.23438,0.26359 0.6225,0.26359 0,0 0.38828,0 0.67391,-0.15375 0,0 0.28562,-0.1539 0.48094,-0.47609 0,0 0.39562,-0.65922 0.39562,-2.07031 0,0 0,-0.30766 -0.09766,-0.42 0,0 -0.13187,-0.15625 -0.43468,-0.26844 0,0 0.29796,-0.10266 0.38578,-0.20516 0,0 0.14656,-0.17578 0.14656,-0.44672 0,0 0,-0.27109 -0.03906,-0.53953 0,0 -0.03907,-0.26859 -0.12453,-0.53219 0,0 -0.08547,-0.26375 -0.21485,-0.50547 0,0 -0.12937,-0.24171 -0.31015,-0.42718 0,0 -0.39547,-0.40531 -0.9325,-0.40531 0,0 -0.1661,0 -0.32235,0.00734 0,0 -0.15625,0.00734 -0.22953,0.09516 l 0,6.08406 0,0 z M 5.51766,3.89641 c 0,0 0.36609,1.02062 0.36609,1.74812 0,0 0,0.24906 -0.04156,0.29297 0,0 -0.04141,0.04391 -0.09016,0.07812 0,0 -0.08797,0.0586 -0.19047,0.09282 0,0 0.29297,0.13172 0.30766,0.2539 0,0 0.00969,0.0536 0.00969,0.10735 l 0,0.12203 c 0,0 0,0.65922 -0.13672,1.27687 0,0 -0.13672,0.61766 -0.205,0.8375 0,0 0.21968,-0.06359 0.31969,-0.29062 0,0 0.10015,-0.22703 0.17093,-0.48828 0,0 0.07078,-0.26125 0.11485,-0.55422 0,0 0.09765,-0.60047 0.09765,-1.25484 0,0 0,-1.17188 -0.34672,-1.88969 0,0 -0.1514,-0.28313 -0.37593,-0.33203 l 0,0 z m -3.755,4.80968 c 0,0 0.24421,-0.09281 0.26859,-0.63968 0,0 0.02937,-0.54688 0.02937,-1.5136 0,0 0,-0.96687 -0.0025,-1.28672 0,0 -0.00249,-0.31984 -0.00734,-0.51515 0,0 -0.01469,-0.5761 -0.10984,-0.69578 0,0 -0.09516,-0.11969 -0.17828,-0.15875 0,0 0,1.69922 -0.0586,1.93359 0,0 -0.06828,0.19531 -0.33203,0.27844 0,0 0.29297,0.1025 0.33203,0.2489 0,0 0.0586,0.23438 0.0586,1.71391 l 0,0.63484 z"
       inkscape:connector-curvature="0" />
    <path
       id="GlRye-Regular162"
       d="m 2.75875,9.94141 c 0,0 -0.24891,0.15629 -0.56641,0.15629 0,0 -0.31734,0 -0.5664,-0.15629 0,0 -0.24891,0.15629 -0.46141,0.15629 0,0 -0.212343,0 -0.349061,-0.0368 0,0 -0.136719,-0.0365 -0.239219,-0.09996 0,0 -0.21,-0.12703 -0.21,-0.31735 0,0 0,-0.09765 0.05375,-0.17093 0,0 0.107344,0.08296 0.273438,0.08296 0,0 0.434532,0 0.600472,-0.37109 l 0,-2.38765 c 0,0 0,-0.22469 -0.09266,-0.33204 0,0 -0.14656,-0.18062 -0.502969,-0.3564 0,0 0.332029,-0.15141 0.429689,-0.2686 0,0 0.16594,-0.19046 0.16594,-0.42968 l 0,-2.06063 c 0,0 -0.16594,-0.37594 -0.600472,-0.37594 0,0 -0.166094,0 -0.273438,0.08297 0,0 -0.05375,-0.07312 -0.05375,-0.16828 0,0 0,-0.09531 0.056094,-0.17828 0,0 0.05625,-0.08312 0.153906,-0.14172 0,0 0.224531,-0.13672 0.515,-0.13672 0,0 0.29062,0 0.53469,0.16125 0,0 0.2539,-0.16125 0.5664,-0.16125 0,0 0.3125,0 0.56641,0.16125 0,0 0.24422,-0.16125 0.45906,-0.16125 0,0 0.21485,0 0.35156,0.03672 0,0 0.13672,0.03656 0.23922,0.1 0,0 0.21,0.12703 0.21,0.3175 0,0 0,0.09766 -0.05375,0.17078 0,0 -0.10734,-0.08297 -0.27343,-0.08297 0,0 -0.43454,0 -0.60063,0.37594 l 0,2.06063 c 0,0 0,0.23922 0.10266,0.3564 0,0 0.16109,0.19047 0.49312,0.34188 0,0 -0.3564,0.17578 -0.45406,0.28797 0,0 -0.14172,0.17578 -0.14172,0.40047 l 0,2.38765 c 0,0 0.16609,0.37109 0.60063,0.37109 0,0 0.16609,0 0.27343,-0.08296 0,0 0.05375,0.07328 0.05375,0.16843 0,0 0,0.09516 -0.05625,0.17829 0,0 -0.05609,0.08296 -0.15375,0.14156 0,0 -0.22453,0.13676 -0.51265,0.13676 0,0 -0.28813,0 -0.53719,-0.15629 l 0,0 z M 1.76266,8.70609 c 0,0 0.24421,-0.09281 0.26859,-0.63968 0,0 0.02937,-0.54688 0.02937,-1.5136 0,0 0,-0.96687 -0.0025,-1.28672 0,0 -0.00249,-0.31984 -0.00734,-0.51515 0,0 -0.01469,-0.5761 -0.10984,-0.69578 0,0 -0.09516,-0.11969 -0.17828,-0.15875 0,0 0,1.69922 -0.0586,1.93359 0,0 -0.06828,0.19531 -0.33203,0.27844 0,0 0.29297,0.1025 0.33203,0.2489 0,0 0.0586,0.23438 0.0586,1.71391 l 0,0.63484 0,0 z M 1.88484,0.332031 c 0,0 0.17578,-0.195312 0.54188,-0.195312 0,0 0.30281,0 0.45906,0.141562 0,0 0.27344,0.249063 0.27344,0.571406 0,0 0,0.322193 -0.22953,0.634693 0,0 -0.22953,0.3125 -0.58594,0.46874 0,0 -0.5225,0.23438 -0.81047,0.23438 0,0 -0.09766,0 -0.16609,-0.02438 0,0 -0.06828,-0.02453 -0.06828,-0.09281 0,0 0,-0.08797 0.13671,-0.22468 0,0 0.13672,-0.13672 0.23188,-0.30266 0,0 0.09516,-0.16609 0.14891,-0.33203 0,0 0.08796,-0.278284 0.08796,-0.537034 0,0 0,-0.258906 -0.01953,-0.341875 l 0,0 z m 0.34172,0.092813 c 0,0 0.05375,0.117187 0.05375,0.295469 0,0 0,0.178125 -0.02687,0.319687 0,0 -0.02688,0.14156 -0.08547,0.27828 0,0 -0.12203,0.25891 -0.39063,0.54688 0,0 0.37594,-0.17578 0.59079,-0.50782 0,0 0.17578,-0.27343 0.17578,-0.52734 0,0 0,-0.439375 -0.21969,-0.439375 0,0 -0.06344,0 -0.09766,0.034219 z"
       inkscape:connector-curvature="0" />
    <path
       id="GlRye-Regular73"
       d="m 1.71875,9.80953 c 0,0 -0.39063,0.39067 -0.742188,0.39067 0,0 -0.224531,0 -0.302656,-0.166 0,0 0.112188,-0.1367 0.112188,-0.41014 l 0,-0.07328 c 0,0 0,-0.02937 -0.004844,-0.05375 0,0 -0.244062,-0.21969 -0.244062,-0.52 0,0 0,-0.30031 0.283124,-0.61281 0,0 -0.082968,-0.16594 -0.082968,-0.35391 0,0 0,-0.18812 0.056094,-0.35156 0,0 0.05625,-0.16359 0.153906,-0.28578 0,0 0.204996,-0.26844 0.402656,-0.26844 0,0 0.19781,0 0.28094,0.15625 0,0 -0.17578,0.18547 -0.17578,0.58109 0,0 0,0.39547 0.11468,0.68844 0,0 0.11469,0.29297 0.32469,0.50282 0,0 0.44922,0.45906 1.1475,0.45906 0,0 0.46875,0 0.79594,-0.2686 0,0 0.35156,-0.28812 0.35156,-0.78609 0,0 0,-0.35156 -0.16609,-0.57125 0,0 -0.25875,-0.34187 -0.81047,-0.72266 0,0 -0.42485,-0.29796 -0.67875,-0.29796 0,0 -0.25875,0 -0.57125,0.21 0,0 0.08297,-0.24907 0.08297,-0.46391 0,0 0,-0.04875 -0.09282,-0.12688 L 1.7725,6.30375 c 0,0 -0.854531,-0.78625 -1.010781,-1.46 0,0 -0.05375,-0.23437 -0.05375,-0.58828 0,0 0,-0.35406 0.173281,-0.71781 0,0 0.17344,-0.36391 0.47625,-0.61782 0,0 0.62984,-0.53703 1.60156,-0.53703 0,0 0.59078,0 1.08391,0.19047 0,0 0.21,0.08297 0.47859,0.08297 0,0 0.11219,0 0.2025,-0.01219 0,0 0.09047,-0.01219 0.15875,-0.10015 0,0 0.06344,-0.09282 0.06344,-0.16594 0,0 0,-0.07328 -0.01953,-0.12219 0,0 0.03422,-0.01453 0.09516,-0.01453 0,0 0.06109,0 0.13437,0.04156 0,0 0.07328,0.04141 0.13187,0.11469 0,0 0.13188,0.16594 0.13188,0.37344 0,0 0,0.2075 -0.11719,0.315 0,0 0.16594,0.1464 0.16594,0.45406 0,0 0,0.30281 -0.205,0.50781 0,0 0.03906,0.13188 0.03906,0.23688 0,0 0,0.105 -0.03672,0.20015 0,0 -0.03656,0.09516 -0.1,0.1636 0,0 -0.14171,0.1514 -0.26859,0.1514 0,0 -0.20016,0 -0.33688,-0.06843 0,0 0.08297,-0.19532 0.08297,-0.41985 0,0 0,-0.22468 -0.10015,-0.4614 0,0 -0.1,-0.23688 -0.28078,-0.41266 0,0 -0.38079,-0.36141 -0.9961,-0.36141 0,0 -0.39062,0 -0.63953,0.23938 0,0 -0.23437,0.22453 -0.23437,0.54187 0,0 0,0.23938 0.11718,0.40047 0,0 0.205,0.27828 0.64938,0.5761 l 0.23437,0.15625 c 0,0 0.19532,0.12218 0.2636,0.12218 0,0 0.06843,0 0.13672,-0.01468 0,0 0.06843,-0.01469 0.1514,-0.03907 0,0 0.17578,-0.05859 0.34188,-0.16609 l -0.0636,0.27344 c 0,0 -0.02922,0.13672 -0.02922,0.20031 0,0 0,0.1025 0.10251,0.18547 0,0 0.91312,0.79109 1.22078,1.32328 0,0 0.26843,0.46391 0.26843,1.00109 0,0 0,0.53704 -0.17578,0.92282 0,0 -0.17578,0.38562 -0.51265,0.68343 0,0 -0.74219,0.66426 -1.92875,0.66426 0,0 -0.83485,0 -1.45016,-0.33707 l 0,0 z M 1.38672,3.89641 c 0,0 -0.18547,0.07812 -0.18547,0.40531 0,0 0,0.66891 0.89344,1.46969 l 0.29297,0.26375 c 0,0 0.1514,0.13672 0.13422,0.21 0,0 -0.01704,0.07312 -0.02922,0.11718 0,0 -0.01219,0.04391 -0.02688,0.08297 0,0 -0.01453,0.03907 -0.01953,0.0586 0,0 0.17094,-0.1025 0.27844,-0.1025 0,0 0.21484,0 0.40515,0.11718 0,0 0.9425,0.58594 1.27938,1.04485 0,0 0.24406,0.33687 0.2539,0.83984 0,0 0,0.18063 -0.02437,0.30281 0,0 0.25875,-0.16609 0.25875,-0.52734 0,0 0,-0.35156 -0.09531,-0.54203 0,0 -0.09516,-0.19047 -0.22219,-0.33938 0,0 -0.12688,-0.1489 -0.32953,-0.32468 0,0 -0.20266,-0.17578 -0.50047,-0.38094 L 3.05672,6.11813 c 0,0 -0.85453,-0.56157 -1.29891,-1.18657 0,0 -0.39062,-0.55172 -0.37109,-1.03515 z"
       inkscape:connector-curvature="0" />
  </defs>
  <g
     id="Background"
     inkscape:label="Background"
     inkscape:groupmode="layer"
     transform="translate(-245.77042,-324.0853)" />
  <g
     id="g39"
     inkscape:label="Background"
     inkscape:groupmode="layer"
     transform="translate(-245.77042,-324.0853)">
    <rect
       style="opacity:1;fill:#b71616;fill-opacity:1;stroke:none;stroke-width:1.96350622;stroke-miterlimit:4;stroke-dasharray:none;stroke-opacity:1"
       id="rect4299"
       width="269.9505"
       height="374.35178"
       x="245.77042"
       y="324.0853"
       ry="12.104977"
       inkscape:export-xdpi="16.002062"
       inkscape:export-ydpi="16.002062" />
    <g
       style="clip-rule:evenodd;fill:none;stroke:none"
       clip-path="url(#Clip0)"
       id="Copy of layer1"
       transform="matrix(1.015324,0,0,1.015324,252.0474,329.9327)"
       inkscape:export-xdpi="16.002062"
       inkscape:export-ydpi="16.002062">
      <path
         style="fill:#000000;fill-rule:evenodd;stroke:#000000;stroke-width:1.26690996;stroke-linecap:square;stroke-linejoin:miter;stroke-dasharray:none"
         id="Copy of  rect3799"
         transform="translate(0.633453,0.633453)"
         d="M 0,40.1622 C 0,17.9812 17.9812,0 40.1622,0 L 214.647,0 c 22.181,0 40.162,17.9812 40.162,40.1622 l 0,276.9608 c 0,22.181 -17.981,40.162 -40.162,40.162 l -174.4848,0 C 17.9812,357.285 0,339.304 0,317.123 L 0,40.1622 Z"
         inkscape:connector-curvature="0" />
      <g
         style="clip-rule:evenodd;fill:none;stroke:none"
         clip-path="url(#Clip1)"
         id="Copy of g3803"
         transform="translate(8.72794,16.3014)">
        <path
           style="fill:#ffffff;fill-rule:nonzero;stroke:#000000;stroke-width:0.42178601;stroke-linecap:butt;stroke-linejoin:miter;stroke-dasharray:none"
           id="Copy of  path3789"
           transform="translate(0.210893,0.210893)"
           d="M 11.9396,131.083 C -9.51994,86.7599 -3.29232,41.6316 40.7607,22.136 47.0417,19.3563 48.3054,10.3089 57.3061,6.724 69.6244,1.8177 86.5163,6.21656 99.4703,4.06677 109.901,2.33575 123.945,-1.79815 134.696,0.878079 149.145,4.47488 158.703,11.4201 174.192,8.84979 175.817,8.58012 205.87,39.5085 208.35,42.331 c 5.119,5.8249 18.918,11.3391 21.349,18.6007 3.652,10.9103 0.534,28.9919 0.534,40.9213 0,12.254 5.517,31.349 1.601,43.047 -11.179,33.395 -44.833,18.983 -44.833,88.221"
           inkscape:connector-curvature="0" />
        <path
           style="fill:#ffffff;fill-rule:nonzero;stroke:#000000;stroke-width:0.42178601;stroke-linecap:butt;stroke-linejoin:miter;stroke-dasharray:none"
           id="Copy of  path3797"
           transform="translate(12.1505,130.762)"
           d="m 0,0 c 11.7198,10.2355 17.1301,47.3495 29.8885,60.0536 4.6933,4.6732 20.151,5.1845 24.5513,9.566 4.9823,4.9611 2.1349,25.6846 2.1349,33.4814 2.096,5.184 6.9921,3.72 9.6071,3.72 5.9698,-32.9864 -3.2384,5.671 17.6129,1.594 1.0799,-0.211 -6.2187,-13.8173 1.6011,-13.8173 4.0919,0 -1.4131,12.6103 2.4018,14.0833 12.0163,4.641 11.1586,-14.5599 12.5424,-13.0204 2.392,2.6605 -1.1165,11.6804 0.534,12.2234 17.266,5.684 10.069,-11.9554 14.41,-11.9577 3.569,-0.0021 -3.782,14.6377 11.475,13.5517 2.161,-0.154 2.143,-14.1526 2.936,-14.3489 5.07,-1.2553 0.462,11.5259 5.07,14.3489 2.603,1.595 9.607,-0.056 9.607,-3.188 0,-12.3338 -1.54,-11.1786 8.258,-10.2117 5.871,0.5793 -5.8,0.7264 6.405,-0.2657 7.95,-0.6464 3.012,11.3354 4.818,13.1344 6.27,6.243 10.182,-2.35 11.208,-7.972"
           inkscape:connector-curvature="0" />
      </g>
      <path
         style="fill:#000000;fill-rule:nonzero;stroke:#000000;stroke-width:0.55354702;stroke-linecap:butt;stroke-linejoin:miter;stroke-dasharray:none"
         id="Copy of  path3767"
         transform="translate(32.8629,130.036)"
         d="M 89.9883,30.7393 C 76.6412,35.8256 53.0263,20.3073 48.4119,0 34.6465,8.40724 12.607,13.7223 0,16.2396 19.183,29.8351 22.7413,46.2556 38.4068,49.5835 52.8016,38.0574 76.1037,47.1992 76.8757,52.2976 79.8077,43.1511 91.8644,39.2124 89.9884,30.7393 l -1e-4,0 z"
         inkscape:connector-curvature="0" />
      <path
         style="fill:#000000;fill-rule:nonzero;stroke:#000000;stroke-width:0.53740901;stroke-linecap:butt;stroke-linejoin:miter;stroke-dasharray:none"
         id="Copy of  path3767-1"
         transform="translate(143.124,133.414)"
         d="M 0.406653,25.8542 C 12.4243,32.3771 36.199,19.6164 42.6145,0 54.6849,9.86112 74.8449,17.5756 86.4305,21.4701 67.0162,32.8168 61.9909,48.6979 46.9333,50.2577 34.5913,37.2353 11.7639,43.7102 10.5162,48.6781 8.69898,39.2867 -2.2239,34.0444 0.406653,25.8542 l 0,0 z"
         inkscape:connector-curvature="0" />
      <path
         style="fill:#000000;fill-rule:nonzero;stroke:#000000;stroke-width:0.421785;stroke-linecap:butt;stroke-linejoin:miter;stroke-dasharray:none"
         id="Copy of  path3787"
         transform="translate(117.452,186.292)"
         d="m 13.9915,0 c 19.3832,10.5628 8.6831,47.0668 0,19.6636 -29.454,30.2695 -3.8602,-9.4057 0,-19.6636 z"
         inkscape:connector-curvature="0" />
    </g>
    <g
       transform="matrix(0.4,0,0,0.4,311.2474,483.4203)"
       id="g49"
       inkscape:export-xdpi="16.002062"
       inkscape:export-ydpi="16.002062">
      <use
         xlink:href="#GlRye-Regular66"
         style="fill:#f00000;stroke:none"
         transform="matrix(5,0,0,5,0,-7.43629)"
         id="use51"
         x="0"
         y="0"
         width="100%"
         height="100%" />
      <use
         xlink:href="#GlRye-Regular95"
         style="fill:#f00000;stroke:none"
         transform="matrix(5,0,0,5,32.9834,-7.43629)"
         id="use53"
         x="0"
         y="0"
         width="100%"
         height="100%" />
      <use
         xlink:href="#GlRye-Regular92"
         style="fill:#f00000;stroke:none"
         transform="matrix(5,0,0,5,50.4639,-7.43629)"
         id="use55"
         x="0"
         y="0"
         width="100%"
         height="100%" />
      <use
         xlink:href="#GlRye-Regular91"
         style="fill:#f00000;stroke:none"
         transform="matrix(5,0,0,5,71.3135,-7.43629)"
         id="use57"
         x="0"
         y="0"
         width="100%"
         height="100%" />
      <use
         xlink:href="#GlRye-Regular34"
         style="fill:#f00000;stroke:none"
         transform="matrix(5,0,0,5,101.099,-7.43629)"
         id="use59"
         x="0"
         y="0"
         width="100%"
         height="100%" />
      <path
         style="fill:none;stroke:none"
         d="M 0,0 155,0 155,85 0,85 0,0 Z"
         id="path61"
         inkscape:connector-curvature="0" />
    </g>
    <g
       transform="matrix(0.4,0,0,0.4,333.2474,532.6203)"
       id="g63"
       inkscape:export-xdpi="16.002062"
       inkscape:export-ydpi="16.002062">
      <use
         xlink:href="#GlRye-Regular106"
         style="fill:#f00000;stroke:none"
         transform="matrix(3.5,0,0,3.5,0,-7.64625)"
         id="use65"
         x="0"
         y="0"
         width="100%"
         height="100%" />
      <use
         xlink:href="#GlRye-Regular94"
         style="fill:#f00000;stroke:none"
         transform="matrix(3.5,0,0,3.5,15.2954,-7.64625)"
         id="use67"
         x="0"
         y="0"
         width="100%"
         height="100%" />
      <use
         xlink:href="#GlRye-Regular91"
         style="fill:#f00000;stroke:none"
         transform="matrix(3.5,0,0,3.5,39.0674,-7.64625)"
         id="use69"
         x="0"
         y="0"
         width="100%"
         height="100%" />
      <use
         xlink:href="#GlRye-Regular22"
         style="fill:#f00000;stroke:none"
         transform="matrix(3.5,0,0,3.5,0,49.6943)"
         id="use71"
         x="0"
         y="0"
         width="100%"
         height="100%" />
      <use
         xlink:href="#GlRye-Regular22"
         style="fill:#f00000;stroke:none"
         transform="matrix(3.5,0,0,3.5,8.54492,49.6943)"
         id="use73"
         x="0"
         y="0"
         width="100%"
         height="100%" />
      <use
         xlink:href="#GlRye-Regular74"
         style="fill:#f00000;stroke:none"
         transform="matrix(3.5,0,0,3.5,17.0898,49.6943)"
         id="use75"
         x="0"
         y="0"
         width="100%"
         height="100%" />
      <use
         xlink:href="#GlRye-Regular104"
         style="fill:#f00000;stroke:none"
         transform="matrix(3.5,0,0,3.5,42.8955,49.6943)"
         id="use77"
         x="0"
         y="0"
         width="100%"
         height="100%" />
      <use
         xlink:href="#GlRye-Regular91"
         style="fill:#f00000;stroke:none"
         transform="matrix(3.5,0,0,3.5,61.7114,49.6943)"
         id="use79"
         x="0"
         y="0"
         width="100%"
         height="100%" />
      <use
         xlink:href="#GlRye-Regular87"
         style="fill:#f00000;stroke:none"
         transform="matrix(3.5,0,0,3.5,82.561,49.6943)"
         id="use81"
         x="0"
         y="0"
         width="100%"
         height="100%" />
      <use
         xlink:href="#GlRye-Regular105"
         style="fill:#f00000;stroke:none"
         transform="matrix(3.5,0,0,3.5,104.453,49.6943)"
         id="use83"
         x="0"
         y="0"
         width="100%"
         height="100%" />
      <use
         xlink:href="#GlRye-Regular107"
         style="fill:#f00000;stroke:none"
         transform="matrix(3.5,0,0,3.5,122.568,49.6943)"
         id="use85"
         x="0"
         y="0"
         width="100%"
         height="100%" />
      <use
         xlink:href="#GlRye-Regular104"
         style="fill:#f00000;stroke:none"
         transform="matrix(3.5,0,0,3.5,146.306,49.6943)"
         id="use87"
         x="0"
         y="0"
         width="100%"
         height="100%" />
      <use
         xlink:href="#GlRye-Regular91"
         style="fill:#f00000;stroke:none"
         transform="matrix(3.5,0,0,3.5,165.122,49.6943)"
         id="use89"
         x="0"
         y="0"
         width="100%"
         height="100%" />
      <use
         xlink:href="#GlRye-Regular22"
         style="fill:#f00000;stroke:none"
         transform="matrix(3.5,0,0,3.5,185.972,49.6943)"
         id="use91"
         x="0"
         y="0"
         width="100%"
         height="100%" />
      <use
         xlink:href="#GlRye-Regular67"
         style="fill:#f00000;stroke:none"
         transform="matrix(3.5,0,0,3.5,194.517,49.6943)"
         id="use93"
         x="0"
         y="0"
         width="100%"
         height="100%" />
      <use
         xlink:href="#GlRye-Regular87"
         style="fill:#f00000;stroke:none"
         transform="matrix(3.5,0,0,3.5,230.303,49.6943)"
         id="use95"
         x="0"
         y="0"
         width="100%"
         height="100%" />
      <use
         xlink:href="#GlRye-Regular102"
         style="fill:#f00000;stroke:none"
         transform="matrix(3.5,0,0,3.5,252.195,49.6943)"
         id="use97"
         x="0"
         y="0"
         width="100%"
         height="100%" />
      <path
         style="fill:none;stroke:none"
         d="m 0,0 286,0 0,149.5 -286,0 L 0,0 Z"
         id="path99"
         inkscape:connector-curvature="0" />
    </g>
    <g
       transform="matrix(0.4,0,0,0.4,336.4474,602.6203)"
       id="g101"
       inkscape:export-xdpi="16.002062"
       inkscape:export-ydpi="16.002062">
      <use
         xlink:href="#GlRye-Regular87"
         style="fill:#ffffff;stroke:none"
         transform="matrix(3.5,0,0,3.5,0,-6.05689)"
         id="use103"
         x="0"
         y="0"
         width="100%"
         height="100%" />
      <use
         xlink:href="#GlRye-Regular100"
         style="fill:#ffffff;stroke:none"
         transform="matrix(3.5,0,0,3.5,21.8921,-6.05689)"
         id="use105"
         x="0"
         y="0"
         width="100%"
         height="100%" />
      <use
         xlink:href="#GlRye-Regular90"
         style="fill:#ffffff;stroke:none"
         transform="matrix(3.5,0,0,3.5,45.5615,-6.05689)"
         id="use107"
         x="0"
         y="0"
         width="100%"
         height="100%" />
      <use
         xlink:href="#GlRye-Regular22"
         style="fill:#ffffff;stroke:none"
         transform="matrix(3.5,0,0,3.5,68.9062,-6.05689)"
         id="use109"
         x="0"
         y="0"
         width="100%"
         height="100%" />
      <use
         xlink:href="#GlRye-Regular105"
         style="fill:#ffffff;stroke:none"
         transform="matrix(3.5,0,0,3.5,77.4512,-6.05689)"
         id="use111"
         x="0"
         y="0"
         width="100%"
         height="100%" />
      <use
         xlink:href="#GlRye-Regular101"
         style="fill:#ffffff;stroke:none"
         transform="matrix(3.5,0,0,3.5,95.5664,-6.05689)"
         id="use113"
         x="0"
         y="0"
         width="100%"
         height="100%" />
      <use
         xlink:href="#GlRye-Regular99"
         style="fill:#ffffff;stroke:none"
         transform="matrix(3.5,0,0,3.5,119.065,-6.05689)"
         id="use115"
         x="0"
         y="0"
         width="100%"
         height="100%" />
      <use
         xlink:href="#GlRye-Regular91"
         style="fill:#ffffff;stroke:none"
         transform="matrix(3.5,0,0,3.5,154.065,-6.05689)"
         id="use117"
         x="0"
         y="0"
         width="100%"
         height="100%" />
      <use
         xlink:href="#GlRye-Regular106"
         style="fill:#ffffff;stroke:none"
         transform="matrix(3.5,0,0,3.5,174.915,-6.05689)"
         id="use119"
         x="0"
         y="0"
         width="100%"
         height="100%" />
      <use
         xlink:href="#GlRye-Regular94"
         style="fill:#ffffff;stroke:none"
         transform="matrix(3.5,0,0,3.5,190.21,-6.05689)"
         id="use121"
         x="0"
         y="0"
         width="100%"
         height="100%" />
      <use
         xlink:href="#GlRye-Regular95"
         style="fill:#ffffff;stroke:none"
         transform="matrix(3.5,0,0,3.5,213.982,-6.05689)"
         id="use123"
         x="0"
         y="0"
         width="100%"
         height="100%" />
      <use
         xlink:href="#GlRye-Regular100"
         style="fill:#ffffff;stroke:none"
         transform="matrix(3.5,0,0,3.5,226.218,-6.05689)"
         id="use125"
         x="0"
         y="0"
         width="100%"
         height="100%" />
      <use
         xlink:href="#GlRye-Regular93"
         style="fill:#ffffff;stroke:none"
         transform="matrix(3.5,0,0,3.5,249.888,-6.05689)"
         id="use127"
         x="0"
         y="0"
         width="100%"
         height="100%" />
      <use
         xlink:href="#GlRye-Regular22"
         style="fill:#ffffff;stroke:none"
         transform="matrix(3.5,0,0,3.5,270.84,-6.05689)"
         id="use129"
         x="0"
         y="0"
         width="100%"
         height="100%" />
      <use
         xlink:href="#GlRye-Regular101"
         style="fill:#ffffff;stroke:none"
         transform="matrix(3.5,0,0,3.5,0,30.5254)"
         id="use131"
         x="0"
         y="0"
         width="100%"
         height="100%" />
      <use
         xlink:href="#GlRye-Regular104"
         style="fill:#ffffff;stroke:none"
         transform="matrix(3.5,0,0,3.5,23.4985,30.5254)"
         id="use133"
         x="0"
         y="0"
         width="100%"
         height="100%" />
      <use
         xlink:href="#GlRye-Regular22"
         style="fill:#ffffff;stroke:none"
         transform="matrix(3.5,0,0,3.5,42.3145,30.5254)"
         id="use135"
         x="0"
         y="0"
         width="100%"
         height="100%" />
      <use
         xlink:href="#GlRye-Regular87"
         style="fill:#ffffff;stroke:none"
         transform="matrix(3.5,0,0,3.5,50.8594,30.5254)"
         id="use137"
         x="0"
         y="0"
         width="100%"
         height="100%" />
      <use
         xlink:href="#GlRye-Regular100"
         style="fill:#ffffff;stroke:none"
         transform="matrix(3.5,0,0,3.5,72.7515,30.5254)"
         id="use139"
         x="0"
         y="0"
         width="100%"
         height="100%" />
      <use
         xlink:href="#GlRye-Regular101"
         style="fill:#ffffff;stroke:none"
         transform="matrix(3.5,0,0,3.5,96.4209,30.5254)"
         id="use141"
         x="0"
         y="0"
         width="100%"
         height="100%" />
      <use
         xlink:href="#GlRye-Regular106"
         style="fill:#ffffff;stroke:none"
         transform="matrix(3.5,0,0,3.5,119.919,30.5254)"
         id="use143"
         x="0"
         y="0"
         width="100%"
         height="100%" />
      <use
         xlink:href="#GlRye-Regular94"
         style="fill:#ffffff;stroke:none"
         transform="matrix(3.5,0,0,3.5,135.215,30.5254)"
         id="use145"
         x="0"
         y="0"
         width="100%"
         height="100%" />
      <use
         xlink:href="#GlRye-Regular91"
         style="fill:#ffffff;stroke:none"
         transform="matrix(3.5,0,0,3.5,158.987,30.5254)"
         id="use147"
         x="0"
         y="0"
         width="100%"
         height="100%" />
      <use
         xlink:href="#GlRye-Regular104"
         style="fill:#ffffff;stroke:none"
         transform="matrix(3.5,0,0,3.5,179.836,30.5254)"
         id="use149"
         x="0"
         y="0"
         width="100%"
         height="100%" />
      <use
         xlink:href="#GlRye-Regular36"
         style="fill:#ffffff;stroke:none"
         transform="matrix(3.5,0,0,3.5,198.652,30.5254)"
         id="use151"
         x="0"
         y="0"
         width="100%"
         height="100%" />
      <path
         style="fill:none;stroke:none"
         d="m 0,0 286,0 0,106.5 -286,0 L 0,0 Z"
         id="path153"
         inkscape:connector-curvature="0" />
    </g>
    <g
       transform="matrix(0.4,0,0,0.4,352.6474,661.2203)"
       id="g155"
       inkscape:export-xdpi="16.002062"
       inkscape:export-ydpi="16.002062">
      <use
         xlink:href="#GlRye-Regular59"
         style="fill:#ea7b4b;stroke:none"
         transform="matrix(3.5,0,0,3.5,17.2327,-0.468517)"
         id="use157"
         x="0"
         y="0"
         width="100%"
         height="100%" />
      <use
         xlink:href="#GlRye-Regular79"
         style="fill:#ea7b4b;stroke:none"
         transform="matrix(3.5,0,0,3.5,41.8591,-0.468517)"
         id="use159"
         x="0"
         y="0"
         width="100%"
         height="100%" />
      <use
         xlink:href="#GlRye-Regular58"
         style="fill:#ea7b4b;stroke:none"
         transform="matrix(3.5,0,0,3.5,65.05,-0.468517)"
         id="use161"
         x="0"
         y="0"
         width="100%"
         height="100%" />
      <use
         xlink:href="#GlRye-Regular162"
         style="fill:#ea7b4b;stroke:none"
         transform="matrix(3.5,0,0,3.5,92.2229,-0.468517)"
         id="use163"
         x="0"
         y="0"
         width="100%"
         height="100%" />
      <use
         xlink:href="#GlRye-Regular73"
         style="fill:#ea7b4b;stroke:none"
         transform="matrix(3.5,0,0,3.5,107.57,-0.468517)"
         id="use165"
         x="0"
         y="0"
         width="100%"
         height="100%" />
      <path
         style="fill:none;stroke:none"
         d="M 0,0 147,0 147,62.5 0,62.5 0,0 Z"
         id="path167"
         inkscape:connector-curvature="0" />
    </g>
  </g>
</svg>
