<?xml version="1.0" encoding="UTF-8" standalone="no"?>
<svg
   xmlns:sketch="http://www.bohemiancoding.com/sketch/ns"
   xmlns:dc="http://purl.org/dc/elements/1.1/"
   xmlns:cc="http://creativecommons.org/ns#"
   xmlns:rdf="http://www.w3.org/1999/02/22-rdf-syntax-ns#"
   xmlns:svg="http://www.w3.org/2000/svg"
   xmlns="http://www.w3.org/2000/svg"
   xmlns:xlink="http://www.w3.org/1999/xlink"
   xmlns:sodipodi="http://sodipodi.sourceforge.net/DTD/sodipodi-0.dtd"
   xmlns:inkscape="http://www.inkscape.org/namespaces/inkscape"
   width="500px"
   height="500px"
   viewBox="0 0 500 500"
   version="1.1"
   id="svg2"
   inkscape:version="0.48.1 "
   sodipodi:docname="intro-bg.svg">
  <metadata
     id="metadata83">
    <rdf:RDF>
      <cc:Work
         rdf:about="">
        <dc:format>image/svg+xml</dc:format>
        <dc:type
           rdf:resource="http://purl.org/dc/dcmitype/StillImage" />
      </cc:Work>
    </rdf:RDF>
  </metadata>
  <sodipodi:namedview
     pagecolor="#ffffff"
     bordercolor="#666666"
     borderopacity="1"
     objecttolerance="10"
     gridtolerance="10"
     guidetolerance="10"
     inkscape:pageopacity="0"
     inkscape:pageshadow="2"
     inkscape:window-width="697"
     inkscape:window-height="810"
     id="namedview81"
     showgrid="false"
     inkscape:zoom="0.49026748"
     inkscape:cx="246.1361"
     inkscape:cy="250"
     inkscape:window-x="0"
     inkscape:window-y="0"
     inkscape:window-maximized="0"
     inkscape:current-layer="Bottom" />
  <!-- Generator: Sketch 3.4.2 (15857) - http://www.bohemiancoding.com/sketch -->
  <title
     id="title4">app-icon-board</title>
  <desc
     id="desc6">Created with Sketch.</desc>
  <defs
     id="defs8">
    <filter
       x="-50%"
       y="-50%"
       width="200%"
       height="200%"
       filterUnits="objectBoundingBox"
       id="filter-1">
      <feOffset
         dx="0"
         dy="5"
         in="SourceAlpha"
         result="shadowOffsetOuter1"
         id="feOffset11" />
      <feGaussianBlur
         stdDeviation="2.5"
         in="shadowOffsetOuter1"
         result="shadowBlurOuter1"
         id="feGaussianBlur13" />
      <feColorMatrix
         values="0 0 0 0 0   0 0 0 0 0   0 0 0 0 0  0 0 0 0.07 0"
         in="shadowBlurOuter1"
         type="matrix"
         result="shadowMatrixOuter1"
         id="feColorMatrix15" />
      <feMerge
         id="feMerge17">
        <feMergeNode
           in="shadowMatrixOuter1"
           id="feMergeNode19" />
        <feMergeNode
           in="SourceGraphic"
           id="feMergeNode21" />
      </feMerge>
    </filter>
    <path
       id="path-2"
       d="M358.425522,314.612533 C386.918372,292.429159 386.914634,256.459893 358.425522,234.27943 L241.487748,143.236439 C212.994898,121.053065 166.795121,121.055976 138.306009,143.236439 L21.3682358,234.27943 C-7.12461463,256.462804 -7.12087586,292.43207 21.3682358,314.612533 L138.306009,405.655524 C166.79886,427.838898 212.998637,427.835987 241.487748,405.655524 L358.425522,314.612533 Z" />
    <filter
       x="-50%"
       y="-50%"
       width="200%"
       height="200%"
       filterUnits="objectBoundingBox"
       id="filter-3">
      <feOffset
         dx="0"
         dy="5"
         in="SourceAlpha"
         result="shadowOffsetOuter1"
         id="feOffset25" />
      <feGaussianBlur
         stdDeviation="2.5"
         in="shadowOffsetOuter1"
         result="shadowBlurOuter1"
         id="feGaussianBlur27" />
      <feColorMatrix
         values="0 0 0 0 0   0 0 0 0 0   0 0 0 0 0  0 0 0 0.07 0"
         in="shadowBlurOuter1"
         type="matrix"
         result="shadowMatrixOuter1"
         id="feColorMatrix29" />
      <feMerge
         id="feMerge31">
        <feMergeNode
           in="shadowMatrixOuter1"
           id="feMergeNode33" />
        <feMergeNode
           in="SourceGraphic"
           id="feMergeNode35" />
      </feMerge>
    </filter>
    <path
       id="path-4"
       d="M358.425522,251.312533 C386.918372,229.129159 386.914634,193.159893 358.425522,170.97943 L241.487748,79.9364388 C212.994898,57.753065 166.795121,57.7559759 138.306009,79.9364388 L21.3682358,170.97943 C-7.12461463,193.162804 -7.12087586,229.13207 21.3682358,251.312533 L138.306009,342.355524 C166.79886,364.538898 212.998637,364.535987 241.487748,342.355524 L358.425522,251.312533 Z" />
    <linearGradient
       x1="161.97831"
       y1="335.99796"
       x2="161.97831"
       y2="-1.1324808"
       id="linearGradient-5"
       gradientTransform="scale(1.1324808,0.88301716)"
       gradientUnits="userSpaceOnUse">
      <stop
         stop-color="#FBAD3F"
         offset="0%"
         id="stop39" />
      <stop
         stop-color="#FF3727"
         offset="100%"
         id="stop41" />
    </linearGradient>
    <path
       id="path-6"
       d="M358.425522,188.012533 C386.918372,165.829159 386.914634,129.859893 358.425522,107.67943 L241.487748,16.6364388 C212.994898,-5.54693499 166.795121,-5.54402414 138.306009,16.6364388 L21.3682358,107.67943 C-7.12461463,129.862804 -7.12087586,165.83207 21.3682358,188.012533 L138.306009,279.055524 C166.79886,301.238898 212.998637,301.235987 241.487748,279.055524 L358.425522,188.012533 Z" />
    <filter
       x="-50%"
       y="-50%"
       width="200%"
       height="200%"
       filterUnits="objectBoundingBox"
       id="filter-7">
      <feOffset
         dx="0"
         dy="5"
         in="SourceAlpha"
         result="shadowOffsetOuter1"
         id="feOffset45" />
      <feGaussianBlur
         stdDeviation="2.5"
         in="shadowOffsetOuter1"
         result="shadowBlurOuter1"
         id="feGaussianBlur47" />
      <feColorMatrix
         values="0 0 0 0 0   0 0 0 0 0   0 0 0 0 0  0 0 0 0.07 0"
         in="shadowBlurOuter1"
         type="matrix"
         result="shadowMatrixOuter1"
         id="feColorMatrix49" />
      <feMerge
         id="feMerge51">
        <feMergeNode
           in="shadowMatrixOuter1"
           id="feMergeNode53" />
        <feMergeNode
           in="SourceGraphic"
           id="feMergeNode55" />
      </feMerge>
    </filter>
    <path
       id="path-8"
       d="M200.994876,73.9239587 C263.044575,114.073764 244.072268,164.565185 244.072268,164.565185 C244.072268,164.565185 250.763903,172.169315 254.10972,181.598436 C257.455537,191.027557 257.418671,202.585834 256.81034,202.889999 C256.20201,203.194165 248.358468,189.810896 234.643147,189.810896 C220.927827,189.810896 213.95991,202.889999 189.626699,202.889999 C134.8381,202.889999 111.076041,157.949594 111.076041,157.949594 C111.076041,157.949594 135.181133,175.210967 160.426846,174.602637 C185.672559,173.994306 192.668351,166.694342 192.668351,166.694342 C192.668351,166.694342 181.380146,157.248766 161.947669,138.254896 C142.515192,119.261027 124.231186,93.0863657 124.231186,93.0863657 C124.231186,93.0863657 153.524357,116.302646 162.92028,123.131903 C172.316203,129.961159 181.712126,136.150173 181.712126,136.150173 C181.712126,136.150173 172.612293,126.333119 166.205982,118.436791 C159.799671,110.540463 143.393593,86.6988967 143.393593,86.6988967 C143.393593,86.6988967 168.55586,109.416546 180.003776,118.436789 C191.451693,127.457032 213.351587,142.665292 213.351587,142.665292 C213.351587,142.665292 226.544752,112.552938 200.994876,73.9239587 Z" />
  </defs>
  <g
     style="fill:none;stroke:none"
     transform="translate(-150,-1)"
     sketch:type="MSArtboardGroup"
     id="app-icon-board">
    <g
       transform="translate(210,40)"
       sketch:type="MSLayerGroup"
       id="icon">
      <g
         style="filter:url(#filter-1)"
         id="Bottom">
        <use
           height="500"
           width="500"
           y="0"
           x="0"
           style="fill:#7f9aae;fill-rule:evenodd;stroke:#333333;fill-opacity:1"
           id="use62"
           xlink:href="#path-2"
           sketch:type="MSShapeGroup" />
        <use
           height="500"
           width="500"
           y="0"
           x="0"
           style="fill:none;stroke:#363338;stroke-opacity:0.1"
           id="use64"
           xlink:href="#path-2" />
      </g>
      <g
         style="filter:url(#filter-3)"
         id="Middle">
        <use
           height="500"
           width="500"
           y="0"
           x="0"
           style="fill:#fcd1f2;fill-rule:evenodd;stroke:#666666;fill-opacity:1"
           id="use67"
           xlink:href="#path-4"
           sketch:type="MSShapeGroup" />
        <use
           height="500"
           width="500"
           y="0"
           x="0"
           style="fill:none;stroke:#363338;stroke-opacity:0.1"
           id="use69"
           xlink:href="#path-4" />
      </g>
      <g
         id="Top">
        <use
           height="500"
           width="500"
           y="0"
           x="0"
           style="fill:url(#linearGradient-5);stroke:#42c88a;stroke-width:2"
           id="use72"
           xlink:href="#path-6"
           sketch:type="MSShapeGroup" />
        <use
           height="500"
           width="500"
           y="0"
           x="0"
           style="fill:#dce0f1;stroke:#000000;stroke-width:1;stroke-opacity:0.10000000000000001;fill-opacity:1"
           id="use74"
           xlink:href="#path-6" />
      </g>
      <g
         id="g3881"
         transform="matrix(0.5,0,0,0.5,214.34605,132.52296)">
        <path
           inkscape:export-ydpi="29"
           inkscape:export-xdpi="29"
           inkscape:export-filename="C:\Users\Notandi\Documents\Gogn\2016\TheLittleChild\03.png"
           transform="matrix(1.5150361,0.0126194,-0.01189485,1.4280494,-292.3588,-656.39253)"
           inkscape:transform-center-y="-9.9738899"
           inkscape:transform-center-x="3.4027576"
           d="m 228.84517,576.05764 -58.40472,-24.6918 -53.45104,34.11424 5.43525,-63.17637 -48.961858,-40.29308 61.763888,-14.35334 23.19094,-59.01674 32.73694,54.30552 63.29465,3.81873 -41.53135,47.916 z"
           inkscape:randomized="0"
           inkscape:rounded="0"
           inkscape:flatsided="false"
           sodipodi:arg2="1.4867573"
           sodipodi:arg1="0.85843873"
           sodipodi:r2="47.743591"
           sodipodi:r1="95.487183"
           sodipodi:cy="503.79074"
           sodipodi:cx="166.43285"
           sodipodi:sides="5"
           id="path2987-1"
           style="fill:#ede98c;fill-opacity:1;fill-rule:nonzero;stroke:#837610;stroke-width:2;stroke-linecap:square;stroke-linejoin:miter;stroke-miterlimit:4;stroke-opacity:1;stroke-dasharray:none"
           sodipodi:type="star" />
        <path
           inkscape:export-ydpi="29"
           inkscape:export-xdpi="29"
           inkscape:export-filename="C:\Users\Notandi\Documents\Gogn\2016\TheLittleChild\03.png"
           transform="translate(-276.3205,-511.7931)"
           d="m 281.4029,418.93192 c 0,35.98118 -27.94294,65.1497 -62.41231,65.1497 -34.46938,0 -62.41232,-29.16852 -62.41232,-65.1497 0,-35.98119 27.94294,-65.14971 62.41232,-65.14971 34.46937,0 62.41231,29.16852 62.41231,65.14971 z"
           sodipodi:ry="65.149704"
           sodipodi:rx="62.412319"
           sodipodi:cy="418.93192"
           sodipodi:cx="218.99059"
           id="path2985-7"
           style="fill:#eff34d;fill-opacity:1;fill-rule:nonzero;stroke:#847810;stroke-width:2;stroke-linecap:square;stroke-linejoin:miter;stroke-miterlimit:4;stroke-opacity:1;stroke-dasharray:none"
           sodipodi:type="arc" />
        <path
           inkscape:export-ydpi="29"
           inkscape:export-xdpi="29"
           inkscape:export-filename="C:\Users\Notandi\Documents\Gogn\2016\TheLittleChild\03.png"
           inkscape:connector-curvature="0"
           id="path2989-40"
           d="m -73.754198,-50.515571 c 8.73515,11.8493 26.75683,7.967 41.60821,-9.854601"
           style="fill:none;stroke:#847810;stroke-width:3.5999999;stroke-linecap:butt;stroke-linejoin:miter;stroke-miterlimit:4;stroke-opacity:1;stroke-dasharray:none" />
        <path
           inkscape:export-ydpi="29"
           inkscape:export-xdpi="29"
           inkscape:export-filename="C:\Users\Notandi\Documents\Gogn\2016\TheLittleChild\03.png"
           transform="translate(-202.95865,-486.41927)"
           d="m 125.91959,392.10556 c 0,6.04726 -1.47069,10.94953 -3.28486,10.94953 -1.81418,0 -3.28486,-4.90227 -3.28486,-10.94953 0,-6.04726 1.47068,-10.94953 3.28486,-10.94953 1.81417,0 3.28486,4.90227 3.28486,10.94953 z"
           sodipodi:ry="10.94953"
           sodipodi:rx="3.2848589"
           sodipodi:cy="392.10556"
           sodipodi:cx="122.63473"
           id="path3759-94"
           style="fill:#837610;fill-opacity:1;fill-rule:nonzero;stroke:#847810;stroke-width:2;stroke-linecap:square;stroke-linejoin:miter;stroke-miterlimit:4;stroke-opacity:1;stroke-dasharray:none"
           sodipodi:type="arc" />
        <path
           inkscape:export-ydpi="29"
           inkscape:export-xdpi="29"
           inkscape:export-filename="C:\Users\Notandi\Documents\Gogn\2016\TheLittleChild\03.png"
           transform="translate(-158.06557,-486.41927)"
           d="m 125.91959,392.10556 c 0,6.04726 -1.47069,10.94953 -3.28486,10.94953 -1.81418,0 -3.28486,-4.90227 -3.28486,-10.94953 0,-6.04726 1.47068,-10.94953 3.28486,-10.94953 1.81417,0 3.28486,4.90227 3.28486,10.94953 z"
           sodipodi:ry="10.94953"
           sodipodi:rx="3.2848589"
           sodipodi:cy="392.10556"
           sodipodi:cx="122.63473"
           id="path3759-1-8"
           style="fill:#837610;fill-opacity:1;fill-rule:nonzero;stroke:#847810;stroke-width:2;stroke-linecap:square;stroke-linejoin:miter;stroke-miterlimit:4;stroke-opacity:1;stroke-dasharray:none"
           sodipodi:type="arc" />
      </g>
    </g>
  </g>
</svg>
